<svg width="133" height="27" viewBox="0 0 133 27" fill="none" xmlns="http://www.w3.org/2000/svg">
<g clip-path="url(#clip0_9_54)">
<path d="M3.88923 0.813695V13H0.501266V0.813695H3.88923ZM12.1624 3.21638C13.2802 3.21638 14.1675 3.5909 14.8244 4.33994C15.4812 5.07746 15.8096 6.08002 15.8096 7.34763V13H12.4217V7.79705C12.4217 7.24392 12.2776 6.81178 11.9895 6.50064C11.7014 6.17797 11.3154 6.01664 10.8314 6.01664C10.3244 6.01664 9.92679 6.17797 9.6387 6.50064C9.35061 6.81178 9.20656 7.24392 9.20656 7.79705V13H5.8186V3.30281H9.20656V4.68566C9.50618 4.24776 9.90951 3.89628 10.4165 3.63124C10.9236 3.35467 11.5055 3.21638 12.1624 3.21638ZM19.3799 2.40396C18.7807 2.40396 18.2967 2.24263 17.9279 1.91997C17.5707 1.58578 17.3921 1.17093 17.3921 0.675411C17.3921 0.168368 17.5707 -0.252246 17.9279 -0.586433C18.2967 -0.92062 18.7807 -1.08771 19.3799 -1.08771C19.9676 -1.08771 20.4401 -0.92062 20.7973 -0.586433C21.1661 -0.252246 21.3505 0.168368 21.3505 0.675411C21.3505 1.17093 21.1661 1.58578 20.7973 1.91997C20.4401 2.24263 19.9676 2.40396 19.3799 2.40396ZM21.0566 3.30281V13H17.6686V3.30281H21.0566ZM28.7075 10.1133V13H27.2382C24.7606 13 23.5218 11.7727 23.5218 9.31818V6.12036H22.3291V3.30281H23.5218V0.95198H26.9271V3.30281H28.6902V6.12036H26.9271V9.37004C26.9271 9.63508 26.9847 9.82522 27.0999 9.94046C27.2267 10.0557 27.4341 10.1133 27.7222 10.1133H28.7075ZM31.9727 2.40396C31.3735 2.40396 30.8895 2.24263 30.5207 1.91997C30.1635 1.58578 29.9849 1.17093 29.9849 0.675411C29.9849 0.168368 30.1635 -0.252246 30.5207 -0.586433C30.8895 -0.92062 31.3735 -1.08771 31.9727 -1.08771C32.5604 -1.08771 33.0329 -0.92062 33.3901 -0.586433C33.7589 -0.252246 33.9432 0.168368 33.9432 0.675411C33.9432 1.17093 33.7589 1.58578 33.3901 1.91997C33.0329 2.24263 32.5604 2.40396 31.9727 2.40396ZM33.6494 3.30281V13H30.2614V3.30281H33.6494ZM35.0256 8.14276C35.0256 7.1402 35.2042 6.2644 35.5615 5.51536C35.9302 4.76632 36.4257 4.19014 37.048 3.78681C37.6818 3.38348 38.3848 3.18181 39.1569 3.18181C39.8252 3.18181 40.4014 3.31434 40.8854 3.57938C41.3694 3.84443 41.7439 4.20166 42.009 4.65109V3.30281H45.3969V13H42.009V11.6517C41.7439 12.1012 41.3636 12.4584 40.8681 12.7234C40.3841 12.9885 39.8137 13.121 39.1569 13.121C38.3848 13.121 37.6818 12.9193 37.048 12.516C36.4257 12.1127 35.9302 11.5365 35.5615 10.7875C35.2042 10.0269 35.0256 9.14532 35.0256 8.14276ZM42.009 8.14276C42.009 7.52048 41.8361 7.03073 41.4904 6.67349C41.1562 6.31626 40.7414 6.13764 40.2458 6.13764C39.7388 6.13764 39.3182 6.31626 38.984 6.67349C38.6498 7.0192 38.4827 7.50896 38.4827 8.14276C38.4827 8.76504 38.6498 9.26056 38.984 9.62932C39.3182 9.98655 39.7388 10.1652 40.2458 10.1652C40.7414 10.1652 41.1562 9.98655 41.4904 9.62932C41.8361 9.27209 42.009 8.77657 42.009 8.14276ZM50.7155 0.208702V13H47.3275V0.208702H50.7155ZM59.3414 10.4072H63.1269V13H55.9534V0.813695H59.3414V10.4072ZM73.7093 8.03905C73.7093 8.3041 73.692 8.56914 73.6574 8.83419H67.2445C67.2791 9.36428 67.4231 9.76184 67.6766 10.0269C67.9417 10.2804 68.2759 10.4072 68.6792 10.4072C69.2439 10.4072 69.6472 10.1536 69.8892 9.64661H73.5019C73.3521 10.315 73.0582 10.9142 72.6203 11.4443C72.1939 11.9629 71.6523 12.372 70.9955 12.6716C70.3386 12.9712 69.6126 13.121 68.8175 13.121C67.861 13.121 67.0083 12.9193 66.2592 12.516C65.5217 12.1127 64.9398 11.5365 64.5134 10.7875C64.0985 10.0384 63.8911 9.15685 63.8911 8.14276C63.8911 7.12868 64.0985 6.25288 64.5134 5.51536C64.9282 4.76632 65.5044 4.19014 66.2419 3.78681C66.991 3.38348 67.8495 3.18181 68.8175 3.18181C69.774 3.18181 70.6209 3.37772 71.3585 3.76952C72.096 4.16133 72.6722 4.72599 73.087 5.46351C73.5019 6.1895 73.7093 7.04801 73.7093 8.03905ZM70.2522 7.19206C70.2522 6.77721 70.1139 6.45454 69.8373 6.22407C69.5608 5.98207 69.2151 5.86107 68.8002 5.86107C68.3854 5.86107 68.0454 5.97631 67.7804 6.20678C67.5153 6.42573 67.3425 6.75416 67.2618 7.19206H70.2522ZM74.5427 8.14276C74.5427 7.1402 74.7213 6.2644 75.0785 5.51536C75.4473 4.76632 75.9428 4.19014 76.5651 3.78681C77.1989 3.38348 77.9018 3.18181 78.6739 3.18181C79.3423 3.18181 79.9185 3.31434 80.4025 3.57938C80.8864 3.84443 81.261 4.20166 81.526 4.65109V3.30281H84.914V13H81.526V11.6517C81.261 12.1012 80.8807 12.4584 80.3852 12.7234C79.9012 12.9885 79.3307 13.121 78.6739 13.121C77.9018 13.121 77.1989 12.9193 76.5651 12.516C75.9428 12.1127 75.4473 11.5365 75.0785 10.7875C74.7213 10.0269 74.5427 9.14532 74.5427 8.14276ZM81.526 8.14276C81.526 7.52048 81.3532 7.03073 81.0074 6.67349C80.6733 6.31626 80.2584 6.13764 79.7629 6.13764C79.2558 6.13764 78.8352 6.31626 78.501 6.67349C78.1669 7.0192 77.9998 7.50896 77.9998 8.14276C77.9998 8.76504 78.1669 9.26056 78.501 9.62932C78.8352 9.98655 79.2558 10.1652 79.7629 10.1652C80.2584 10.1652 80.6733 9.98655 81.0074 9.62932C81.3532 9.27209 81.526 8.77657 81.526 8.14276ZM90.2325 5.01408C90.6128 4.46094 91.0737 4.02304 91.6154 3.70038C92.157 3.37772 92.7389 3.21638 93.3612 3.21638V6.82906H92.4105C91.673 6.82906 91.1256 6.97311 90.7684 7.2612C90.4111 7.54929 90.2325 8.05057 90.2325 8.76504V13H86.8446V3.30281H90.2325V5.01408ZM100.92 3.21638C102.037 3.21638 102.925 3.5909 103.582 4.33994C104.238 5.07746 104.567 6.08002 104.567 7.34763V13H101.179V7.79705C101.179 7.24392 101.035 6.81178 100.747 6.50064C100.459 6.17797 100.073 6.01664 99.5886 6.01664C99.0815 6.01664 98.684 6.17797 98.3959 6.50064C98.1078 6.81178 97.9637 7.24392 97.9637 7.79705V13H94.5758V3.30281H97.9637V4.68566C98.2634 4.24776 98.6667 3.89628 99.1737 3.63124C99.6808 3.35467 100.263 3.21638 100.92 3.21638ZM108.137 2.40396C107.538 2.40396 107.054 2.24263 106.685 1.91997C106.328 1.58578 106.149 1.17093 106.149 0.675411C106.149 0.168368 106.328 -0.252246 106.685 -0.586433C107.054 -0.92062 107.538 -1.08771 108.137 -1.08771C108.725 -1.08771 109.197 -0.92062 109.555 -0.586433C109.923 -0.252246 110.108 0.168368 110.108 0.675411C110.108 1.17093 109.923 1.58578 109.555 1.91997C109.197 2.24263 108.725 2.40396 108.137 2.40396ZM109.814 3.30281V13H106.426V3.30281H109.814ZM118.087 3.21638C119.205 3.21638 120.092 3.5909 120.749 4.33994C121.406 5.07746 121.734 6.08002 121.734 7.34763V13H118.346V7.79705C118.346 7.24392 118.202 6.81178 117.914 6.50064C117.626 6.17797 117.24 6.01664 116.756 6.01664C116.249 6.01664 115.851 6.17797 115.563 6.50064C115.275 6.81178 115.131 7.24392 115.131 7.79705V13H111.743V3.30281H115.131V4.68566C115.431 4.24776 115.834 3.89628 116.341 3.63124C116.848 3.35467 117.43 3.21638 118.087 3.21638ZM127.171 3.18181C127.828 3.18181 128.399 3.31434 128.883 3.57938C129.378 3.84443 129.758 4.20166 130.023 4.65109V3.30281H133.411V12.8963C133.411 13.8067 133.239 14.6248 132.893 15.3508C132.547 16.0883 132.005 16.6761 131.268 17.114C130.542 17.5519 129.62 17.7708 128.502 17.7708C127.004 17.7708 125.806 17.4193 124.907 16.7164C124.008 16.0134 123.495 15.057 123.368 13.847H126.705C126.774 14.1581 126.947 14.4001 127.223 14.573C127.5 14.7458 127.857 14.8323 128.295 14.8323C129.447 14.8323 130.023 14.1869 130.023 12.8963V11.6517C129.758 12.1012 129.378 12.4584 128.883 12.7234C128.399 12.9885 127.828 13.121 127.171 13.121C126.399 13.121 125.696 12.9193 125.062 12.516C124.44 12.1127 123.945 11.5365 123.576 10.7875C123.219 10.0269 123.04 9.14532 123.04 8.14276C123.04 7.1402 123.219 6.2644 123.576 5.51536C123.945 4.76632 124.44 4.19014 125.062 3.78681C125.696 3.38348 126.399 3.18181 127.171 3.18181ZM130.023 8.14276C130.023 7.52048 129.851 7.03073 129.505 6.67349C129.171 6.31626 128.756 6.13764 128.26 6.13764C127.753 6.13764 127.333 6.31626 126.998 6.67349C126.664 7.0192 126.497 7.50896 126.497 8.14276C126.497 8.76504 126.664 9.26056 126.998 9.62932C127.333 9.98655 127.753 10.1652 128.26 10.1652C128.756 10.1652 129.171 9.98655 129.505 9.62932C129.851 9.27209 130.023 8.77657 130.023 8.14276ZM36.2011 17.8758C36.2011 18.6133 36.0282 19.2874 35.6825 19.8982C35.3483 20.4974 34.8355 20.9814 34.1441 21.3502C33.4642 21.7074 32.6288 21.886 31.6377 21.886H29.961V26H26.5731V13.8137H31.6377C32.6172 13.8137 33.4469 13.9866 34.1268 14.3323C34.8183 14.678 35.3368 15.1562 35.6825 15.767C36.0282 16.3777 36.2011 17.0807 36.2011 17.8758ZM31.3093 19.1895C32.2658 19.1895 32.744 18.7516 32.744 17.8758C32.744 16.9885 32.2658 16.5448 31.3093 16.5448H29.961V19.1895H31.3093ZM40.9502 18.0141C41.3305 17.4609 41.7914 17.023 42.333 16.7004C42.8746 16.3777 43.4566 16.2164 44.0789 16.2164V19.8291H43.1281C42.3906 19.8291 41.8433 19.9731 41.486 20.2612C41.1288 20.5493 40.9502 21.0506 40.9502 21.765V26H37.5622V16.3028H40.9502V18.0141ZM49.805 26.121C48.837 26.121 47.9669 25.9193 47.1948 25.516C46.4343 25.1127 45.835 24.5365 45.3971 23.7875C44.9592 23.0384 44.7403 22.1568 44.7403 21.1428C44.7403 20.1402 44.9592 19.2644 45.3971 18.5154C45.8466 17.7663 46.4516 17.1901 47.2121 16.7868C47.9842 16.3835 48.8543 16.1818 49.8222 16.1818C50.7902 16.1818 51.6545 16.3835 52.4151 16.7868C53.1872 17.1901 53.7922 17.7663 54.2301 18.5154C54.6795 19.2644 54.9042 20.1402 54.9042 21.1428C54.9042 22.1453 54.6795 23.0269 54.2301 23.7875C53.7922 24.5365 53.1872 25.1127 52.4151 25.516C51.643 25.9193 50.7729 26.121 49.805 26.121ZM49.805 23.1825C50.2774 23.1825 50.6692 23.0096 50.9804 22.6639C51.303 22.3067 51.4644 21.7996 51.4644 21.1428C51.4644 20.4859 51.303 19.9846 50.9804 19.6389C50.6692 19.2932 50.2832 19.1204 49.8222 19.1204C49.3613 19.1204 48.9752 19.2932 48.6641 19.6389C48.353 19.9846 48.1974 20.4859 48.1974 21.1428C48.1974 21.8111 48.3472 22.3182 48.6468 22.6639C48.9464 23.0096 49.3325 23.1825 49.805 23.1825ZM59.8607 16.1818C60.5175 16.1818 61.088 16.3143 61.572 16.5794C62.0675 16.8444 62.4478 17.2017 62.7128 17.6511V16.3028H66.1008V25.8963C66.1008 26.8067 65.9279 27.6248 65.5822 28.3508C65.2365 29.0883 64.6949 29.6761 63.9574 30.114C63.2314 30.5519 62.3095 30.7708 61.1917 30.7708C59.6936 30.7708 58.4951 30.4193 57.5963 29.7164C56.6974 29.0134 56.1846 28.057 56.0579 26.847H59.394C59.4631 27.1581 59.636 27.4001 59.9125 27.573C60.1891 27.7458 60.5463 27.8323 60.9842 27.8323C62.1366 27.8323 62.7128 27.1869 62.7128 25.8963V24.6517C62.4478 25.1012 62.0675 25.4584 61.572 25.7234C61.088 25.9885 60.5175 26.121 59.8607 26.121C59.0886 26.121 58.3857 25.9193 57.7518 25.516C57.1296 25.1127 56.634 24.5365 56.2653 23.7875C55.9081 23.0269 55.7294 22.1453 55.7294 21.1428C55.7294 20.1402 55.9081 19.2644 56.2653 18.5154C56.634 17.7663 57.1296 17.1901 57.7518 16.7868C58.3857 16.3835 59.0886 16.1818 59.8607 16.1818ZM62.7128 21.1428C62.7128 20.5205 62.5399 20.0307 62.1942 19.6735C61.86 19.3163 61.4452 19.1376 60.9497 19.1376C60.4426 19.1376 60.022 19.3163 59.6878 19.6735C59.3536 20.0192 59.1865 20.509 59.1865 21.1428C59.1865 21.765 59.3536 22.2606 59.6878 22.6293C60.022 22.9866 60.4426 23.1652 60.9497 23.1652C61.4452 23.1652 61.86 22.9866 62.1942 22.6293C62.5399 22.2721 62.7128 21.7766 62.7128 21.1428ZM71.4193 18.0141C71.7996 17.4609 72.2605 17.023 72.8022 16.7004C73.3438 16.3777 73.9257 16.2164 74.548 16.2164V19.8291H73.5973C72.8598 19.8291 72.3124 19.9731 71.9552 20.2612C71.5979 20.5493 71.4193 21.0506 71.4193 21.765V26H68.0313V16.3028H71.4193V18.0141ZM75.2094 21.1428C75.2094 20.1402 75.388 19.2644 75.7453 18.5154C76.114 17.7663 76.6096 17.1901 77.2318 16.7868C77.8656 16.3835 78.5686 16.1818 79.3407 16.1818C80.009 16.1818 80.5852 16.3143 81.0692 16.5794C81.5532 16.8444 81.9277 17.2017 82.1928 17.6511V16.3028H85.5807V26H82.1928V24.6517C81.9277 25.1012 81.5475 25.4584 81.0519 25.7234C80.5679 25.9885 79.9975 26.121 79.3407 26.121C78.5686 26.121 77.8656 25.9193 77.2318 25.516C76.6096 25.1127 76.114 24.5365 75.7453 23.7875C75.388 23.0269 75.2094 22.1453 75.2094 21.1428ZM82.1928 21.1428C82.1928 20.5205 82.0199 20.0307 81.6742 19.6735C81.34 19.3163 80.9252 19.1376 80.4297 19.1376C79.9226 19.1376 79.502 19.3163 79.1678 19.6735C78.8336 20.0192 78.6665 20.509 78.6665 21.1428C78.6665 21.765 78.8336 22.2606 79.1678 22.6293C79.502 22.9866 79.9226 23.1652 80.4297 23.1652C80.9252 23.1652 81.34 22.9866 81.6742 22.6293C82.0199 22.2721 82.1928 21.7766 82.1928 21.1428ZM100.182 16.2164C101.403 16.2164 102.36 16.5851 103.051 17.3227C103.754 18.0602 104.105 19.0685 104.105 20.3476V26H100.717V20.7971C100.717 20.2785 100.573 19.8752 100.285 19.5871C99.9972 19.299 99.6054 19.1549 99.1099 19.1549C98.6144 19.1549 98.2226 19.299 97.9345 19.5871C97.6464 19.8752 97.5024 20.2785 97.5024 20.7971V26H94.1144V20.7971C94.1144 20.2785 93.9704 19.8752 93.6823 19.5871C93.4057 19.299 93.0197 19.1549 92.5241 19.1549C92.0171 19.1549 91.6195 19.299 91.3314 19.5871C91.0433 19.8752 90.8993 20.2785 90.8993 20.7971V26H87.5113V16.3028H90.8993V17.5819C91.1989 17.1671 91.585 16.8387 92.0574 16.5967C92.5414 16.3431 93.0946 16.2164 93.7168 16.2164C94.4313 16.2164 95.0651 16.372 95.6182 16.6831C96.1829 16.9942 96.6266 17.4321 96.9492 17.9968C97.2949 17.4667 97.7501 17.0403 98.3148 16.7177C98.8794 16.3835 99.5017 16.2164 100.182 16.2164Z" fill="#DC143C"/>
<path d="M43.7841 15.0191C43.8303 15.024 43.8701 15.044 43.9035 15.0792C43.9368 15.1144 43.951 15.1551 43.9461 15.2013C43.9469 15.2069 43.9386 15.2905 43.9214 15.4522C43.9033 15.6083 43.8783 15.8167 43.8464 16.0771C43.8136 16.332 43.7692 16.6255 43.7132 16.9576C43.6619 17.2834 43.6006 17.6191 43.5293 17.9647C43.3529 18.7801 43.1483 19.4345 42.9156 19.9278C42.8674 20.0312 42.8089 20.1418 42.74 20.2595C42.6766 20.3764 42.6009 20.4866 42.5129 20.5899C42.4305 20.6924 42.3346 20.7797 42.2252 20.8519C42.1158 20.924 41.9941 20.9695 41.8602 20.9881C41.5421 21.0325 41.2388 20.9183 40.9505 20.6456C40.7066 20.4066 40.4787 20.0572 40.2666 19.5975C40.0847 19.1904 39.9205 18.707 39.7742 18.1471C39.6334 17.5864 39.5175 16.9796 39.4264 16.3266C39.3314 15.6458 39.2723 14.977 39.249 14.3203C39.2305 13.6572 39.2492 13.0572 39.3051 12.5203C39.3628 11.9547 39.4647 11.5024 39.6109 11.1634C39.7764 10.7591 40.0042 10.5368 40.2944 10.4963C40.4451 10.4753 40.5833 10.4873 40.7091 10.5323C40.8396 10.571 40.9538 10.6347 41.0515 10.7235C41.1548 10.8115 41.2437 10.9186 41.3182 11.0448C41.3919 11.1653 41.4524 11.2934 41.4998 11.4291C41.6095 11.7665 41.6564 12.144 41.6407 12.5615C41.6242 12.9734 41.5451 13.3856 41.4035 13.7979C41.327 14.0248 41.2343 14.2368 41.1253 14.4341C41.0162 14.6313 40.8917 14.8194 40.7516 14.9982C40.7132 15.0491 40.672 15.1004 40.628 15.152C40.5832 15.1981 40.5388 15.247 40.4948 15.2986C40.5649 16.0455 40.6733 16.7615 40.82 17.4465C40.8805 17.7168 40.9505 17.9944 41.03 18.2792C41.1103 18.5695 41.1967 18.8419 41.2891 19.0964C41.3871 19.3502 41.4895 19.5748 41.5965 19.7704C41.7034 19.966 41.8109 20.1046 41.919 20.1863C42.0335 20.2727 42.1494 20.2878 42.2667 20.2316C42.3848 20.181 42.5005 20.0312 42.6136 19.7822C42.8279 19.3199 43.0217 18.6898 43.1949 17.8919C43.2669 17.5518 43.329 17.2217 43.381 16.9016C43.4323 16.5758 43.4743 16.2855 43.507 16.0306C43.5398 15.7757 43.5624 15.5706 43.5748 15.4152C43.5929 15.2591 43.6019 15.181 43.6019 15.181C43.6068 15.1348 43.6269 15.095 43.6621 15.0617C43.6972 15.0283 43.7379 15.0141 43.7841 15.0191ZM41.1731 11.5344C41.107 11.3046 41.0429 11.1713 40.9808 11.1345C40.918 11.092 40.8586 11.1146 40.8025 11.202C40.7456 11.2839 40.693 11.4164 40.6446 11.5995C40.6017 11.7819 40.5644 11.9834 40.5326 12.204C40.5008 12.4246 40.4753 12.6501 40.4563 12.8803C40.4364 13.105 40.4246 13.3058 40.4208 13.4826C40.4169 13.6994 40.4165 13.9213 40.4198 14.1484C40.4278 14.3692 40.4394 14.5952 40.4546 14.8263C40.7218 14.4989 40.9307 14.1199 41.0811 13.6892C41.2114 13.3183 41.284 12.9412 41.2988 12.558C41.3137 12.1747 41.2718 11.8335 41.1731 11.5344ZM46.1414 14.7415C46.1892 14.7576 46.2218 14.7872 46.2391 14.8303C46.2558 14.8678 46.256 14.9104 46.2399 14.9582C46.1224 15.2988 45.9958 15.6351 45.86 15.967C45.7298 16.298 45.5922 16.596 45.4471 16.8609C45.3822 16.9667 45.3145 17.0728 45.244 17.1794C45.1735 17.2859 45.0935 17.3853 45.004 17.4774C44.9136 17.564 44.8134 17.6405 44.7032 17.7071C44.5985 17.7729 44.4793 17.8151 44.3453 17.8338C44.15 17.8611 43.9633 17.8075 43.7853 17.673C43.6064 17.5329 43.443 17.3196 43.2949 17.0331C43.1144 16.677 42.989 16.2877 42.9187 15.8652C42.8483 15.4426 42.8613 15.0254 42.9575 14.6138C42.9954 14.4776 43.0412 14.3575 43.0949 14.2532C43.1479 14.1434 43.2144 14.0488 43.2943 13.9694C43.4431 13.8121 43.6155 13.7027 43.8118 13.6412C44.0088 13.5853 44.1849 13.5835 44.3401 13.6358C44.4595 13.676 44.5569 13.7421 44.6323 13.834C44.7125 13.9195 44.7616 14.0265 44.7795 14.1548C44.8246 14.4785 44.5617 14.8167 43.9908 15.1694C44.0151 15.3026 44.046 15.4633 44.0836 15.6515C44.1205 15.8341 44.1601 16.0163 44.2025 16.1981C44.2506 16.3792 44.305 16.5451 44.3658 16.6959C44.4267 16.8467 44.4961 16.9566 44.5739 17.0253C44.651 17.0886 44.7354 17.1024 44.8272 17.0668C44.9238 17.0249 45.0318 16.9017 45.1512 16.6973C45.2915 16.4388 45.4247 16.15 45.5509 15.8309C45.6819 15.5054 45.8069 15.1779 45.9259 14.8483C45.942 14.8006 45.9688 14.7684 46.0063 14.7518C46.0486 14.7288 46.0937 14.7254 46.1414 14.7415ZM44.0101 14.7571C44.1139 14.6857 44.1958 14.6203 44.2558 14.5607C44.315 14.4956 44.3586 14.4411 44.3866 14.3974C44.4139 14.3481 44.4311 14.3087 44.4384 14.2792C44.4449 14.2442 44.447 14.2183 44.4446 14.2015C44.4353 14.1346 44.4247 14.0991 44.4127 14.095C44.4056 14.0847 44.3809 14.091 44.3386 14.1139C44.1653 14.2177 44.0558 14.4321 44.0101 14.7571ZM50.3018 14.1186C50.348 14.1235 50.385 14.1439 50.4127 14.1799C50.4461 14.2151 50.4603 14.2557 50.4554 14.3019C50.4569 14.3131 50.4511 14.3737 50.438 14.4836C50.4241 14.5879 50.4037 14.7273 50.3769 14.9017C50.3548 15.0698 50.3223 15.2649 50.2793 15.4871C50.2419 15.7085 50.1937 15.9343 50.1348 16.1644C50.1025 16.2998 50.0557 16.4741 49.9944 16.6875C49.9379 16.8945 49.8612 17.0987 49.7641 17.2999C49.6678 17.5068 49.5536 17.6877 49.4216 17.8427C49.2896 17.9976 49.1315 18.088 48.9473 18.1136C48.7353 18.1432 48.5522 18.0749 48.3982 17.9086C48.2235 17.7168 48.0959 17.3932 48.0153 16.9379C47.9629 16.6437 47.9321 16.3009 47.9231 15.9096C47.8732 16.0418 47.811 16.187 47.7364 16.3453C47.6665 16.4973 47.5816 16.6428 47.4815 16.782C47.3807 16.9155 47.2631 17.0315 47.1289 17.1298C46.9947 17.2282 46.8383 17.2898 46.6597 17.3147C46.592 17.3185 46.5135 17.3067 46.4244 17.2793C46.3352 17.2519 46.247 17.1903 46.1596 17.0943C46.0779 16.9976 45.999 16.8607 45.9231 16.6836C45.8472 16.5064 45.7886 16.2699 45.7474 15.9741C45.6828 15.5109 45.7111 15.1229 45.8325 14.8102C45.9602 14.5022 46.1534 14.296 46.4119 14.1917C46.6481 14.0905 46.902 14.075 47.1735 14.1452C47.445 14.2155 47.6931 14.3629 47.9179 14.5876L47.9906 13.9459C47.9964 13.8655 48.0616 13.8023 48.186 13.7565C48.3097 13.7051 48.4437 13.6865 48.5878 13.7005C48.7313 13.7089 48.8598 13.7536 48.9735 13.8344C49.0864 13.9097 49.1378 14.0334 49.1277 14.2055C49.1138 14.3099 49.105 14.4305 49.1014 14.5676C49.0946 14.6823 49.0913 14.8222 49.0916 14.9871C49.0911 15.1465 49.0909 15.3286 49.091 15.5334C49.0968 15.9422 49.114 16.2897 49.1425 16.5759C49.1758 16.8557 49.2211 17.0372 49.2782 17.1202C49.3416 17.2081 49.4166 17.1749 49.5032 17.0206C49.5898 16.8663 49.6912 16.5534 49.8076 16.082C49.8617 15.8583 49.9078 15.6385 49.946 15.4227C49.989 15.2005 50.0215 15.0054 50.0436 14.8373C50.0712 14.6684 50.0892 14.5322 50.0975 14.4287C50.1106 14.3187 50.1172 14.2638 50.1172 14.2638C50.1221 14.2176 50.1426 14.1806 50.1785 14.1528C50.2145 14.125 50.2556 14.1136 50.3018 14.1186ZM47.4261 16.2008C47.5159 16.029 47.595 15.8416 47.6634 15.6386C47.7318 15.4357 47.7903 15.2227 47.8388 14.9997C47.8261 14.9901 47.8194 14.9825 47.8186 14.9769C47.64 14.7572 47.4862 14.6336 47.3572 14.606C47.2275 14.5729 47.1241 14.6073 47.0473 14.709C46.9753 14.8044 46.9278 14.9533 46.9048 15.1556C46.881 15.3523 46.8863 15.5735 46.9205 15.8191C46.9431 15.9809 46.9689 16.1252 46.998 16.252C47.0262 16.3732 47.061 16.4594 47.1023 16.5106C47.1436 16.5617 47.1898 16.5666 47.2409 16.5254C47.292 16.4841 47.3538 16.3759 47.4261 16.2008ZM54.0923 13.5899C54.1393 13.6004 54.1743 13.6268 54.1973 13.6691C54.2195 13.7058 54.2253 13.7477 54.2148 13.7947C54.2148 13.7947 54.2006 13.8564 54.1723 13.9798C54.1433 14.0977 54.1025 14.2541 54.0501 14.4492C54.0032 14.6435 53.9431 14.8652 53.8697 15.1144C53.8012 15.3572 53.7219 15.6044 53.6318 15.8559C53.5835 15.9992 53.5159 16.1878 53.4291 16.4218C53.3415 16.6502 53.2367 16.8782 53.1149 17.1057C52.993 17.3332 52.8501 17.5323 52.6861 17.7031C52.5286 17.8787 52.3549 17.9797 52.1652 18.0062C52.0759 18.0187 51.9866 18.0112 51.8975 17.9838C51.8139 17.9556 51.7376 17.898 51.6686 17.8109C51.3924 17.4626 51.3434 16.6217 51.5215 15.2883C51.5615 15.0039 51.6035 14.7335 51.6473 14.4771C51.6968 14.2198 51.7406 14.0032 51.7786 13.8272C51.6253 13.9112 51.433 14.0006 51.2016 14.0955C50.9749 14.184 50.7333 14.2461 50.4766 14.2819C50.0859 14.3364 49.7587 14.2341 49.495 13.9751C49.2766 13.7552 49.1429 13.4695 49.0938 13.1179C49.0736 12.9728 49.0713 12.8337 49.0869 12.7007C49.1017 12.5621 49.1327 12.4382 49.1801 12.3292C49.3006 12.0507 49.4864 11.8939 49.7375 11.8589C49.8994 11.8363 50.0296 11.8523 50.1282 11.9068C50.2317 11.955 50.31 12.0067 50.3632 12.0618C50.5799 12.3104 50.6538 12.7381 50.5849 13.3451C50.5725 13.4606 50.5594 13.5706 50.5455 13.6749C50.5308 13.7737 50.5146 13.8613 50.4968 13.9377C50.6858 13.9057 50.8669 13.8577 51.04 13.7937C51.2131 13.7297 51.3635 13.6661 51.4913 13.6028C51.6238 13.5331 51.7292 13.4729 51.8074 13.4221C51.8913 13.3706 51.9332 13.3448 51.9332 13.3448C51.9484 13.3313 51.9855 13.3119 52.0446 13.2866C52.1084 13.255 52.1842 13.2273 52.2719 13.2037C52.3589 13.1745 52.4498 13.1533 52.5447 13.1401C52.6388 13.1213 52.7237 13.118 52.7993 13.1302C52.8798 13.136 52.9403 13.1617 52.9808 13.2073C53.0261 13.2465 53.041 13.3126 53.0255 13.4058C53.0255 13.4058 53.0154 13.4556 52.9951 13.5552C52.9741 13.6491 52.9466 13.7781 52.9126 13.9422C52.8841 14.1054 52.8505 14.2922 52.8115 14.5024C52.7726 14.7127 52.738 14.9337 52.7077 15.1655C52.6334 15.6936 52.5898 16.115 52.5768 16.4297C52.5638 16.7445 52.5819 16.9354 52.6311 17.0025C52.6803 17.0696 52.759 17.0017 52.8672 16.7989C52.9819 16.6008 53.1292 16.2503 53.3094 15.7472C53.3995 15.4957 53.4792 15.2513 53.5485 15.0141C53.6171 14.7713 53.6752 14.5555 53.7228 14.3668C53.7752 14.1717 53.816 14.0153 53.8451 13.8974C53.8742 13.7796 53.8887 13.7207 53.8887 13.7207C53.8992 13.6737 53.9228 13.6391 53.9596 13.6169C54.0011 13.5884 54.0454 13.5794 54.0923 13.5899ZM50.2562 13.3142C50.2644 13.2504 50.2668 13.1449 50.2633 12.9974C50.2654 12.8492 50.2511 12.7061 50.2205 12.5682C50.1954 12.4294 50.1488 12.3193 50.0805 12.2378C50.0115 12.1507 49.9127 12.136 49.7842 12.1938C49.7036 12.2278 49.6504 12.2949 49.6246 12.3953C49.5932 12.4964 49.5808 12.6119 49.5876 12.7418C49.5943 12.8717 49.619 13.0076 49.6615 13.1496C49.6985 13.2924 49.7451 13.4224 49.8013 13.5398C49.8519 13.6579 49.9081 13.7553 49.97 13.832C50.0319 13.9087 50.0912 13.946 50.1478 13.9437C50.1663 13.8729 50.185 13.7821 50.2037 13.6714C50.2224 13.5607 50.2399 13.4416 50.2562 13.3142ZM59.1759 12.8809C59.2221 12.8858 59.2567 12.9094 59.2797 12.9517C59.3074 12.9877 59.3188 13.0288 59.3139 13.075C59.3155 13.0861 59.3061 13.1415 59.2859 13.241C59.2712 13.3398 59.2469 13.4712 59.2128 13.6352C59.1788 13.7993 59.1364 13.9844 59.0855 14.1906C59.0346 14.3969 58.9761 14.6098 58.91 14.8296C58.7393 15.3597 58.559 15.7803 58.3692 16.0912C58.104 16.5151 57.8095 16.7496 57.4859 16.7947C57.2794 16.8235 57.1074 16.7736 56.97 16.6448C56.8722 16.556 56.7981 16.4327 56.7477 16.2747C56.7028 16.116 56.6723 15.9382 56.6562 15.7413C56.6449 15.538 56.6429 15.3193 56.65 15.085C56.6627 14.85 56.6775 14.609 56.6943 14.362C56.7101 14.1493 56.7219 13.9485 56.7297 13.7597C56.7423 13.5645 56.7457 13.3848 56.7399 13.2206C56.7294 13.0229 56.7095 12.8806 56.6803 12.7937C56.6567 12.7059 56.629 12.6501 56.5972 12.6261C56.5845 12.6165 56.5694 12.61 56.5519 12.6068C56.5336 12.598 56.5077 12.5959 56.4742 12.6005C56.3849 12.613 56.291 12.6744 56.1927 12.7849C56.0991 12.889 56.0045 13.0672 55.9088 13.3195C55.8131 13.5718 55.7152 13.9097 55.615 14.3333C55.5195 14.7506 55.425 15.2758 55.3312 15.909C55.3324 16.0397 55.2707 16.1479 55.1461 16.2335C55.027 16.3184 54.893 16.3769 54.7438 16.4091C54.5955 16.4469 54.454 16.4524 54.3194 16.4256C54.1912 16.4037 54.1209 16.3481 54.1084 16.2588C54.0521 15.9367 54.0061 15.6273 53.9705 15.3307C53.934 15.0286 53.9058 14.7651 53.8858 14.5404C53.8651 14.31 53.8509 14.127 53.8434 13.9916C53.8295 13.8513 53.8226 13.7811 53.8226 13.7811C53.8111 13.6575 53.8632 13.5621 53.9789 13.4947C54.0947 13.4274 54.2267 13.3948 54.3749 13.3968C54.5224 13.3933 54.6605 13.4253 54.7894 13.4927C54.9238 13.5592 54.998 13.6627 55.0119 13.803C55.0127 13.8086 55.0239 13.9094 55.0455 14.1055C55.0672 14.3016 55.0997 14.5958 55.143 14.988C55.182 14.7777 55.2233 14.5643 55.2671 14.3477C55.3164 14.1303 55.3701 13.9237 55.4281 13.7279C55.4902 13.5201 55.5529 13.3378 55.6164 13.181C55.6791 13.0187 55.7477 12.8782 55.8222 12.7598C55.8911 12.642 55.9843 12.5352 56.1018 12.4391C56.2248 12.3423 56.3565 12.2671 56.497 12.2133C56.6366 12.154 56.7834 12.125 56.9372 12.1263C57.0902 12.1221 57.2367 12.1528 57.3767 12.2186C57.5239 12.2948 57.645 12.4088 57.7402 12.5605C57.8353 12.7122 57.8969 12.8886 57.9249 13.0895C57.9529 13.2904 57.9613 13.5139 57.9502 13.7601C57.939 14.0063 57.9198 14.2565 57.8927 14.5106C57.8594 14.9249 57.8512 15.2532 57.8679 15.4955C57.8846 15.7378 57.9208 15.875 57.9765 15.907C58.0385 15.9439 58.1189 15.8673 58.2175 15.6771C58.3218 15.4862 58.4451 15.1675 58.5877 14.7209C58.6545 14.5068 58.711 14.2998 58.7571 14.0999C58.808 13.8937 58.8508 13.7113 58.8856 13.5529C58.9204 13.3944 58.9451 13.2658 58.9598 13.167C58.9745 13.0682 58.9818 13.0189 58.9818 13.0189C58.9867 12.9727 59.0076 12.9385 59.0443 12.9163C59.0858 12.8877 59.1297 12.8759 59.1759 12.8809ZM61.4198 12.6106C61.466 12.6155 61.5058 12.6355 61.5391 12.6707C61.5717 12.7003 61.5855 12.7382 61.5806 12.7844C61.5806 12.7844 61.5776 12.8446 61.5716 12.9649C61.5704 13.0788 61.5628 13.2278 61.5486 13.4119C61.54 13.5951 61.5238 13.805 61.4999 14.0416C61.4816 14.2775 61.4525 14.5176 61.4127 14.7621C61.3631 15.0592 61.3088 15.3228 61.2499 15.5529C61.1909 15.783 61.1249 15.9828 61.0518 16.1523C60.9682 16.3688 60.8581 16.5378 60.7214 16.6592C60.5848 16.7807 60.4403 16.8464 60.2881 16.8562C60.1414 16.8653 59.9953 16.8174 59.8499 16.7125C59.7044 16.6076 59.5814 16.4399 59.481 16.2093C59.3354 15.8996 59.2161 15.4724 59.123 14.9279C59.0863 14.7054 59.0552 14.4822 59.0296 14.2582C59.0041 14.0342 58.9844 13.8321 58.9707 13.6519C58.9569 13.4718 58.9479 13.3251 58.9435 13.212C58.9383 13.0932 58.9349 13.0283 58.9333 13.0171C58.9344 12.943 58.9944 12.8834 59.1132 12.8384C59.2313 12.7878 59.3617 12.7639 59.5043 12.7668C59.6526 12.7689 59.7907 12.8008 59.9188 12.8626C60.0469 12.9244 60.1187 13.031 60.1341 13.1824C60.1349 13.188 60.1393 13.3012 60.1473 13.522C60.1609 13.7419 60.191 14.0393 60.2376 14.414C60.3723 15.3795 60.5125 15.8748 60.6582 15.9C60.8047 15.9307 60.9431 15.5359 61.0733 14.7156C61.1084 14.4774 61.1383 14.2428 61.1629 14.0118C61.1876 13.7808 61.2046 13.5765 61.214 13.3988C61.2281 13.2148 61.2358 13.0658 61.237 12.9518C61.2437 12.8371 61.2471 12.7797 61.2471 12.7797C61.252 12.7335 61.2693 12.6941 61.2989 12.6616C61.3333 12.6226 61.3736 12.6056 61.4198 12.6106ZM59.7898 11.3871C59.7735 11.2699 59.718 11.1781 59.6234 11.1116C59.5344 11.0444 59.4285 11.0193 59.3057 11.0365C59.1941 11.052 59.1019 11.1047 59.029 11.1945C58.9618 11.2836 58.9364 11.3867 58.9527 11.5039C58.9683 11.6155 59.0206 11.7049 59.1096 11.7721C59.2042 11.8386 59.3073 11.864 59.4189 11.8485C59.5417 11.8313 59.6367 11.7783 59.704 11.6892C59.7768 11.5994 59.8054 11.4987 59.7898 11.3871ZM66.5825 11.8478C66.6287 11.8528 66.6632 11.8764 66.6862 11.9187C66.714 11.9547 66.7254 11.9957 66.7205 12.0419C66.722 12.0531 66.7127 12.1085 66.6924 12.208C66.6778 12.3068 66.6534 12.4382 66.6194 12.6022C66.5854 12.7663 66.5429 12.9514 66.492 13.1576C66.4412 13.3638 66.3827 13.5768 66.3166 13.7965C66.1459 14.3267 65.9656 14.7473 65.7757 15.0582C65.5105 15.4821 65.2161 15.7166 64.8924 15.7617C64.6859 15.7905 64.514 15.7405 64.3765 15.6118C64.2788 15.523 64.2047 15.3996 64.1542 15.2417C64.1093 15.083 64.0788 14.9052 64.0628 14.7083C64.0515 14.505 64.0494 14.2863 64.0566 14.052C64.0693 13.817 64.0841 13.576 64.1008 13.329C64.1167 13.1163 64.1285 12.9155 64.1363 12.7267C64.1489 12.5315 64.1523 12.3518 64.1464 12.1876C64.1359 11.9899 64.1161 11.8476 64.0869 11.7607C64.0633 11.6729 64.0356 11.6171 64.0038 11.593C63.9911 11.5834 63.9759 11.577 63.9584 11.5738C63.9401 11.5649 63.9142 11.5629 63.8807 11.5675C63.7914 11.58 63.6976 11.6414 63.5992 11.7519C63.5056 11.856 63.411 12.0341 63.3153 12.2864C63.2197 12.5387 63.1217 12.8767 63.0215 13.3003C62.9261 13.7176 62.8315 14.2428 62.7378 14.876C62.7389 15.0067 62.6772 15.1149 62.5526 15.2005C62.4336 15.2854 62.2995 15.3439 62.1504 15.3761C62.0021 15.4139 61.8606 15.4194 61.726 15.3926C61.5978 15.3707 61.5274 15.3151 61.515 15.2258C61.4587 14.9036 61.4127 14.5943 61.377 14.2977C61.3406 13.9956 61.3124 13.7321 61.2924 13.5073C61.2716 13.277 61.2575 13.094 61.25 12.9585C61.2361 12.8182 61.2292 12.7481 61.2292 12.7481C61.2176 12.6245 61.2697 12.5291 61.3855 12.4617C61.5013 12.3944 61.6333 12.3617 61.7815 12.3638C61.9289 12.3603 62.0671 12.3923 62.1959 12.4596C62.3304 12.5262 62.4046 12.6297 62.4184 12.77C62.4192 12.7755 62.4304 12.8764 62.4521 13.0725C62.4738 13.2686 62.5063 13.5628 62.5496 13.955C62.5885 13.7447 62.6299 13.5313 62.6736 13.3147C62.723 13.0973 62.7766 12.8907 62.8347 12.6948C62.8967 12.4871 62.9595 12.3048 63.023 12.148C63.0856 11.9857 63.1542 11.8452 63.2288 11.7267C63.2977 11.609 63.3909 11.5022 63.5083 11.4061C63.6314 11.3093 63.7631 11.234 63.9035 11.1803C64.0432 11.121 64.1899 11.092 64.3437 11.0933C64.4967 11.0891 64.6432 11.1198 64.7833 11.1856C64.9305 11.2618 65.0516 11.3758 65.1467 11.5275C65.2418 11.6792 65.3034 11.8555 65.3314 12.0565C65.3595 12.2574 65.3679 12.4809 65.3567 12.7271C65.3455 12.9733 65.3264 13.2235 65.2992 13.4776C65.266 13.8919 65.2577 14.2202 65.2745 14.4625C65.2912 14.7048 65.3274 14.842 65.3831 14.874C65.4451 14.9109 65.5254 14.8343 65.6241 14.6441C65.7283 14.4532 65.8517 14.1345 65.9942 13.6879C66.0611 13.4738 66.1175 13.2667 66.1636 13.0669C66.2145 12.8607 66.2574 12.6783 66.2921 12.5198C66.3269 12.3614 66.3517 12.2328 66.3663 12.134C66.381 12.0352 66.3884 11.9859 66.3884 11.9859C66.3933 11.9396 66.4141 11.9055 66.4508 11.8833C66.4924 11.8547 66.5362 11.8429 66.5825 11.8478ZM71.0722 11.2814C71.1143 11.2983 71.1441 11.3282 71.1615 11.3713C71.1837 11.4081 71.1868 11.4503 71.1707 11.4981C71.0758 11.7559 70.9255 12.0244 70.7197 12.3034C70.5196 12.5817 70.2879 12.8785 70.0247 13.194C70.064 13.3535 70.102 13.5445 70.1387 13.767C70.1747 13.9838 70.2038 14.213 70.2261 14.4546C70.2548 14.7009 70.2727 14.9516 70.2798 15.2066C70.2933 15.4664 70.2944 15.7195 70.2832 15.9657C70.2728 16.2174 70.2486 16.4513 70.2104 16.6671C70.173 16.8885 70.1178 17.0839 70.0447 17.2534C69.9186 17.5327 69.7704 17.7753 69.6 17.9811C69.4296 18.1869 69.2386 18.3473 69.027 18.4621C68.8641 18.5588 68.6767 18.6219 68.4646 18.6515C68.2589 18.6859 68.0625 18.6649 67.8755 18.5886C67.7259 18.5355 67.595 18.4542 67.483 18.3446C67.3718 18.2407 67.2834 18.1165 67.2177 17.972C67.0873 17.6488 67.0794 17.2858 67.1938 16.883C67.2752 16.6099 67.3777 16.3453 67.5013 16.0891C67.6249 15.8329 67.7632 15.5804 67.9162 15.3315C68.07 15.0881 68.233 14.8492 68.4051 14.6147C68.5835 14.385 68.7656 14.1605 68.9512 13.9411C68.9115 13.6565 68.8638 13.3758 68.8081 13.0991C68.7517 12.8169 68.6889 12.5298 68.6198 12.2379C68.5638 12.5302 68.4952 12.7929 68.4139 13.0261C68.3327 13.2593 68.2447 13.465 68.1501 13.6432C68.1092 13.7172 68.0552 13.7987 67.9879 13.8877C67.9263 13.976 67.8551 14.057 67.7743 14.1309C67.6992 14.2039 67.6137 14.2642 67.5179 14.3117C67.4277 14.3584 67.3305 14.3748 67.2261 14.3609C66.9815 14.3609 66.7687 14.2427 66.5878 14.0062C66.4013 13.7705 66.2808 13.4573 66.2263 13.0667C66.1687 12.6537 66.2186 12.2769 66.3759 11.9364C66.4561 11.7773 66.5542 11.6441 66.6701 11.5369C66.7908 11.4234 66.9218 11.3425 67.063 11.2944C67.3246 11.2124 67.5887 11.2495 67.8551 11.4058C68.042 11.5219 68.2064 11.6811 68.3484 11.8832C68.3662 11.8067 68.3784 11.7311 68.385 11.6562C68.3964 11.5749 68.4079 11.4937 68.4193 11.4124C68.4146 11.3789 68.4339 11.3336 68.4771 11.2764C68.5259 11.2183 68.5867 11.1644 68.6593 11.1144C68.7368 11.0581 68.8207 11.0066 68.9109 10.9598C69.0011 10.9131 69.088 10.8839 69.1717 10.8722C69.2547 10.855 69.3296 10.8616 69.3964 10.8921C69.4625 10.917 69.5097 10.9702 69.5381 11.0516C69.5381 11.0516 69.5507 11.101 69.5759 11.1999C69.601 11.2988 69.6333 11.428 69.6726 11.5875C69.7111 11.7415 69.7536 11.9233 69.7999 12.133C69.851 12.3364 69.8973 12.5461 69.9389 12.7622C70.1533 12.5047 70.3386 12.2627 70.4947 12.0361C70.6564 11.8087 70.7767 11.59 70.8555 11.3799C70.8724 11.3377 70.8995 11.3083 70.9371 11.2917C70.9794 11.2687 71.0244 11.2653 71.0722 11.2814ZM67.8542 13.4797C68.0129 13.1901 68.1457 12.816 68.2524 12.3574C68.133 12.0725 68.0152 11.9012 67.8991 11.8434C67.7885 11.7849 67.6912 11.8013 67.6073 11.8927C67.5225 11.9784 67.4595 12.1181 67.4182 12.3116C67.3761 12.4995 67.3695 12.6967 67.3983 12.9032C67.41 12.9869 67.4303 13.0922 67.4594 13.219C67.4877 13.3402 67.522 13.4435 67.5624 13.5289C67.6027 13.6143 67.6464 13.6623 67.6934 13.6728C67.7459 13.6825 67.7996 13.6182 67.8542 13.4797ZM67.5139 16.9749C67.4228 17.3005 67.4139 17.5635 67.4874 17.7637C67.5608 17.964 67.674 18.0819 67.8269 18.1175C67.9861 18.1579 68.164 18.1074 68.3605 17.9662C68.5633 17.8299 68.7427 17.5858 68.8984 17.2341C69.0189 16.9556 69.0883 16.5761 69.1066 16.0956C69.1257 15.6208 69.0949 15.0533 69.0142 14.3932C68.6997 14.7898 68.4047 15.2036 68.1292 15.6346C67.8536 16.0656 67.6485 16.5124 67.5139 16.9749ZM76.778 10.4258C76.825 10.4363 76.8599 10.4628 76.8829 10.5051C76.9051 10.5418 76.9109 10.5837 76.9004 10.6306C76.9004 10.6306 76.8863 10.6924 76.858 10.8158C76.8289 10.9336 76.7881 11.0901 76.7357 11.2851C76.6888 11.4794 76.6287 11.7012 76.5554 11.9503C76.4868 12.1932 76.4075 12.4403 76.3174 12.6919C76.2692 12.8351 76.2016 13.0238 76.1147 13.2578C76.0271 13.4862 75.9224 13.7141 75.8005 13.9417C75.6786 14.1692 75.5357 14.3683 75.3718 14.5391C75.2142 14.7147 75.0406 14.8157 74.8508 14.8422C74.7615 14.8546 74.6723 14.8472 74.5831 14.8198C74.4995 14.7916 74.4232 14.734 74.3542 14.6469C74.078 14.2985 74.029 13.4576 74.2072 12.1242C74.2472 11.8399 74.2891 11.5695 74.333 11.313C74.3824 11.0558 74.4262 10.8392 74.4642 10.6632C74.311 10.7472 74.1186 10.8366 73.8872 10.9314C73.6606 11.0199 73.4189 11.0821 73.1622 11.1179C72.7715 11.1724 72.4444 11.0701 72.1807 10.811C71.9622 10.5911 71.8285 10.3054 71.7795 9.95383C71.7592 9.80873 71.7569 9.66966 71.7725 9.53663C71.7873 9.39802 71.8184 9.27421 71.8658 9.16519C71.9862 8.88668 72.172 8.72991 72.4232 8.69489C72.585 8.67231 72.7152 8.68828 72.8139 8.7428C72.9173 8.79096 72.9956 8.84262 73.0488 8.89778C73.2656 9.14633 73.3395 9.5741 73.2705 10.1811C73.2582 10.2966 73.245 10.4065 73.2312 10.5109C73.2165 10.6097 73.2003 10.6973 73.1825 10.7737C73.3714 10.7417 73.5525 10.6936 73.7256 10.6297C73.8988 10.5657 74.0492 10.502 74.1769 10.4387C74.3094 10.369 74.4148 10.3088 74.4931 10.2581C74.5769 10.2066 74.6188 10.1808 74.6188 10.1808C74.634 10.1673 74.6711 10.1479 74.7302 10.1226C74.7941 10.0909 74.8698 10.0633 74.9576 10.0397C75.0445 10.0105 75.1355 9.98927 75.2303 9.97603C75.3244 9.95722 75.4093 9.95392 75.485 9.96612C75.5654 9.97197 75.6259 9.99767 75.6664 10.0432C75.7117 10.0824 75.7266 10.1486 75.7112 10.2418C75.7112 10.2418 75.701 10.2916 75.6808 10.3911C75.6598 10.4851 75.6322 10.6141 75.5982 10.7781C75.5698 10.9414 75.5361 11.1282 75.4972 11.3384C75.4582 11.5487 75.4236 11.7697 75.3933 12.0015C75.3191 12.5296 75.2754 12.951 75.2624 13.2657C75.2495 13.5804 75.2675 13.7713 75.3167 13.8384C75.3659 13.9055 75.4446 13.8377 75.5529 13.6348C75.6675 13.4368 75.8149 13.0862 75.9951 12.5832C76.0851 12.3317 76.1649 12.0873 76.2342 11.8501C76.3027 11.6072 76.3608 11.3915 76.4084 11.2028C76.4609 11.0077 76.5017 10.8513 76.5307 10.7334C76.5598 10.6156 76.5744 10.5566 76.5744 10.5566C76.5849 10.5097 76.6085 10.4751 76.6452 10.4529C76.6868 10.4243 76.731 10.4153 76.778 10.4258ZM72.9419 10.1501C72.9501 10.0864 72.9524 9.98083 72.9489 9.83339C72.951 9.68518 72.9367 9.54209 72.9061 9.40412C72.8811 9.26538 72.8344 9.15526 72.7662 9.07375C72.6971 8.98666 72.5984 8.97199 72.4699 9.02973C72.3893 9.06373 72.336 9.13089 72.3102 9.23121C72.2788 9.33232 72.2665 9.44782 72.2732 9.57774C72.2799 9.70765 72.3046 9.84361 72.3472 9.98559C72.3841 10.1284 72.4307 10.2584 72.4869 10.3757C72.5375 10.4938 72.5938 10.5912 72.6557 10.668C72.7176 10.7447 72.7768 10.7819 72.8334 10.7797C72.852 10.7089 72.8706 10.6181 72.8893 10.5074C72.908 10.3967 72.9255 10.2776 72.9419 10.1501ZM79.7243 10.0576C79.7721 10.0737 79.8047 10.1033 79.8221 10.1463C79.8387 10.1839 79.8389 10.2265 79.8228 10.2742C79.7054 10.6149 79.5787 10.9512 79.443 11.283C79.3128 11.6141 79.1751 11.9121 79.03 12.177C78.9651 12.2827 78.8974 12.3889 78.8269 12.4955C78.7565 12.602 78.6764 12.7014 78.5869 12.7935C78.4965 12.8801 78.3963 12.9566 78.2861 13.0232C78.1815 13.089 78.0622 13.1312 77.9283 13.1499C77.7329 13.1772 77.5462 13.1235 77.3682 12.9891C77.1893 12.849 77.0259 12.6357 76.8778 12.3491C76.6973 11.9931 76.5719 11.6038 76.5016 11.1812C76.4313 10.7587 76.4442 10.3415 76.5404 9.92986C76.5783 9.79372 76.6241 9.67354 76.6779 9.56932C76.7308 9.45953 76.7973 9.36492 76.8772 9.2855C77.026 9.12821 77.1985 9.01881 77.3947 8.9573C77.5917 8.90138 77.7678 8.89957 77.9231 8.95188C78.0425 8.99212 78.1399 9.05819 78.2153 9.15008C78.2955 9.23562 78.3445 9.34256 78.3624 9.47092C78.4076 9.79461 78.1447 10.1328 77.5737 10.4855C77.598 10.6187 77.6289 10.7794 77.6665 10.9676C77.7034 11.1502 77.743 11.3324 77.7855 11.5142C77.8335 11.6953 77.8879 11.8612 77.9488 12.012C78.0096 12.1628 78.079 12.2726 78.1569 12.3414C78.2339 12.4046 78.3184 12.4185 78.4101 12.3829C78.5067 12.341 78.6147 12.2178 78.7341 12.0134C78.8744 11.7549 79.0077 11.4661 79.1338 11.1469C79.2648 10.8215 79.3898 10.4939 79.5088 10.1644C79.5249 10.1167 79.5517 10.0845 79.5892 10.0679C79.6316 10.0449 79.6766 10.0415 79.7243 10.0576ZM77.593 10.0732C77.6968 10.0018 77.7787 9.93636 77.8387 9.87679C77.8979 9.81164 77.9415 9.7572 77.9695 9.71346C77.9968 9.66415 78.0141 9.62476 78.0213 9.5953C78.0278 9.56026 78.0299 9.53436 78.0276 9.51762C78.0182 9.45065 78.0076 9.41516 77.9956 9.41113C77.9885 9.40075 77.9638 9.40704 77.9215 9.43001C77.7482 9.53383 77.6387 9.74823 77.593 10.0732ZM82.8525 9.62127C82.9003 9.63737 82.9328 9.66696 82.9502 9.71005C82.9668 9.74756 82.9671 9.7902 82.951 9.83796L82.782 10.3394C82.6726 10.6562 82.5596 10.9678 82.443 11.2743C82.3264 11.5807 82.1948 11.8607 82.0481 12.1145C81.7139 12.6959 81.3152 13.0189 80.852 13.0835C80.5394 13.1271 80.2577 13.0241 80.0067 12.7747C79.8963 12.6763 79.7994 12.5533 79.7163 12.4056C79.6275 12.2586 79.5507 12.0958 79.486 11.9171C79.4094 11.6945 79.358 11.4684 79.3317 11.2388C79.299 11.0044 79.2961 10.7801 79.3231 10.5658C79.343 10.3412 79.3975 10.1401 79.4865 9.96273C79.5851 9.7726 79.7155 9.6264 79.8776 9.52414C80.0349 9.42824 80.1745 9.38886 80.2964 9.406C80.4175 9.41756 80.5182 9.44618 80.5985 9.49187C80.7226 9.5656 80.8215 9.66275 80.8952 9.78332C80.9737 9.89754 81.0343 10.0057 81.077 10.1079C81.1284 10.2315 81.167 10.3656 81.1928 10.5099C81.2186 10.6542 81.2321 10.7917 81.2333 10.9224C81.2283 10.9686 81.2083 11.0084 81.1731 11.0417C81.1435 11.0743 81.106 11.0909 81.0606 11.0916C81.0144 11.0866 80.975 11.0694 80.9424 11.0398C80.9091 11.0046 80.8921 10.9643 80.8914 10.9189C80.8926 10.8049 80.8803 10.6758 80.8545 10.5315C80.8279 10.3816 80.792 10.2671 80.7468 10.188C80.7065 10.1026 80.6627 10.0746 80.6156 10.1039C80.5685 10.1333 80.5266 10.2614 80.49 10.4884C80.4573 10.7433 80.4707 11.0231 80.5303 11.3277C80.582 11.5765 80.6495 11.7946 80.7325 11.9822C80.8156 12.1697 80.908 12.3019 81.0097 12.3788C81.117 12.4548 81.2322 12.4644 81.3551 12.4074C81.4828 12.3441 81.6176 12.1887 81.7594 11.9414C81.8917 11.7067 82.0113 11.4426 82.1183 11.1489C82.2308 10.8544 82.3442 10.5456 82.4584 10.2224L82.637 9.72814C82.6531 9.68038 82.6799 9.64819 82.7174 9.63158C82.7597 9.60861 82.8047 9.60518 82.8525 9.62127ZM87.0239 8.99681C87.0701 9.00174 87.1071 9.02218 87.1349 9.05814C87.1682 9.09331 87.1824 9.134 87.1775 9.1802C87.179 9.19136 87.1733 9.25191 87.1601 9.36183C87.1462 9.46618 87.1259 9.60557 87.099 9.78C87.0769 9.94807 87.0444 10.1432 87.0014 10.3654C86.964 10.5868 86.9159 10.8126 86.8569 11.0427C86.8246 11.178 86.7778 11.3524 86.7165 11.5658C86.6601 11.7728 86.5833 11.9769 86.4862 12.1782C86.3899 12.3851 86.2757 12.566 86.1437 12.7209C86.0117 12.8759 85.8536 12.9662 85.6695 12.9919C85.4574 13.0215 85.2743 12.9531 85.1203 12.7869C84.9456 12.595 84.818 12.2715 84.7374 11.8162C84.685 11.522 84.6543 11.1792 84.6452 10.7879C84.5954 10.92 84.5331 11.0652 84.4585 11.2236C84.3887 11.3755 84.3037 11.5211 84.2036 11.6602C84.1028 11.7938 83.9852 11.9097 83.851 12.0081C83.7168 12.1064 83.5604 12.1681 83.3819 12.193C83.3141 12.1968 83.2357 12.1849 83.1465 12.1576C83.0573 12.1302 82.9691 12.0685 82.8817 11.9726C82.8 11.8759 82.7212 11.739 82.6452 11.5618C82.5693 11.3846 82.5107 11.1482 82.4695 10.8524C82.4049 10.3892 82.4333 10.0012 82.5546 9.68842C82.6824 9.38045 82.8755 9.1743 83.134 9.06996C83.3702 8.96875 83.6241 8.95325 83.8956 9.02348C84.1671 9.09371 84.4153 9.24116 84.64 9.46583L84.7127 8.82418C84.7185 8.74372 84.7837 8.68058 84.9082 8.63477C85.0318 8.58338 85.1658 8.5647 85.31 8.57873C85.4534 8.58717 85.5819 8.63183 85.6956 8.71269C85.8085 8.78797 85.8599 8.91166 85.8498 9.08376C85.8359 9.1881 85.8271 9.3088 85.8235 9.44585C85.8167 9.56058 85.8135 9.70043 85.8137 9.86538C85.8132 10.0248 85.813 10.2068 85.8131 10.4116C85.8189 10.8205 85.8361 11.168 85.8646 11.4542C85.898 11.734 85.9432 11.9154 86.0003 11.9985C86.0637 12.0863 86.1388 12.0531 86.2253 11.8988C86.3119 11.7445 86.4134 11.4317 86.5297 10.9603C86.5838 10.7365 86.63 10.5168 86.6681 10.3009C86.7111 10.0787 86.7436 9.88361 86.7657 9.71554C86.7934 9.54669 86.8113 9.41048 86.8197 9.30691C86.8328 9.19699 86.8393 9.14202 86.8393 9.14202C86.8443 9.09582 86.8647 9.05883 86.9007 9.03106C86.9366 9.00329 86.9777 8.99187 87.0239 8.99681ZM84.1482 11.0791C84.238 10.9073 84.3171 10.7199 84.3855 10.5169C84.4539 10.3139 84.5124 10.1009 84.561 9.87796C84.5482 9.86836 84.5415 9.86076 84.5407 9.85518C84.3622 9.63545 84.2084 9.51182 84.0794 9.48429C83.9496 9.45119 83.8463 9.48551 83.7694 9.58726C83.6974 9.68265 83.6499 9.83151 83.6269 10.0338C83.6031 10.2306 83.6084 10.4517 83.6426 10.6973C83.6652 10.8591 83.691 11.0035 83.7201 11.1303C83.7484 11.2515 83.7831 11.3377 83.8244 11.3888C83.8657 11.4399 83.9119 11.4449 83.963 11.4036C84.0142 11.3623 84.0759 11.2542 84.1482 11.0791ZM91.0715 8.47495C91.1177 8.47988 91.1574 8.49994 91.1908 8.53511C91.2234 8.56471 91.2372 8.6026 91.2322 8.64881C91.2147 9.3795 91.1209 10.0127 90.951 10.5485C90.7867 11.0834 90.5401 11.5388 90.2114 11.9147C89.961 12.1999 89.6885 12.4285 89.3939 12.6005C89.1048 12.7716 88.8155 12.9201 88.5258 13.0458L88.5228 13.2084C88.5029 13.9223 88.3975 14.4718 88.2066 14.8569C88.0341 15.2109 87.8399 15.4912 87.6241 15.6977C87.4026 15.9049 87.1747 16.0249 86.9403 16.0576C86.9236 16.0599 86.9092 16.0591 86.8973 16.0551C86.8806 16.0574 86.8638 16.0597 86.8471 16.0621C86.7004 16.0711 86.5651 16.0388 86.441 15.9651C86.3177 15.8969 86.2156 15.7974 86.1348 15.6664C86.0167 15.4724 85.9704 15.2427 85.996 14.9775C86.0241 14.6891 86.1238 14.4049 86.2953 14.125C86.4251 13.9134 86.5795 13.7354 86.7585 13.591C86.9374 13.4466 87.1331 13.3197 87.3454 13.2105C87.3495 12.9539 87.34 12.6821 87.3171 12.3951C87.2997 12.1074 87.268 11.7989 87.2221 11.4696C87.1801 11.1683 87.1348 10.8844 87.0863 10.6181C87.0378 10.3518 86.9911 10.1193 86.9463 9.92076C86.9064 9.71583 86.8726 9.55554 86.8451 9.4399C86.8169 9.31868 86.8027 9.25807 86.8027 9.25807C86.791 9.17436 86.8356 9.08566 86.9363 8.99196C87.0426 8.89748 87.1639 8.82935 87.3003 8.78757C87.4415 8.73943 87.577 8.73191 87.7068 8.76501C87.8358 8.79253 87.9204 8.88884 87.9605 9.05393C87.9612 9.05951 87.9801 9.13368 88.0171 9.27645C88.0533 9.41363 88.0933 9.59864 88.1372 9.83148C88.1608 9.67457 88.1912 9.52526 88.2283 9.38353C88.2703 9.23545 88.3217 9.09457 88.3827 8.9609C88.4293 8.8463 88.4807 8.74526 88.5367 8.65779C88.5984 8.56954 88.6612 8.48966 88.7252 8.41816C88.8739 8.26087 89.0264 8.17132 89.1827 8.14953C89.5231 8.10205 89.7993 8.22569 90.011 8.52044C90.1991 8.7673 90.3254 9.12234 90.39 9.58554C90.425 9.83668 90.4322 10.0718 90.4116 10.2909C90.3909 10.5099 90.3417 10.7074 90.2638 10.8833C90.1899 11.0472 90.0947 11.1799 89.978 11.2815C89.8613 11.3832 89.7332 11.4437 89.5937 11.4632C89.4486 11.4834 89.3107 11.4742 89.1802 11.4355C89.0552 11.396 88.9394 11.3411 88.8329 11.2706C88.7263 11.2001 88.6302 11.1225 88.5444 11.0377C88.4578 10.9474 88.3836 10.8639 88.3217 10.7872L88.3941 11.3062C88.4291 11.5573 88.4566 11.7953 88.4766 12.0201C88.4973 12.2504 88.5109 12.4704 88.5174 12.68C88.8175 12.5471 89.1053 12.3875 89.3808 12.2012C89.6627 12.0196 89.911 11.7802 90.1255 11.4829C90.3457 11.1848 90.5238 10.81 90.66 10.3586C90.801 9.90088 90.8806 9.32938 90.8988 8.64411C90.9037 8.59791 90.921 8.55852 90.9506 8.52595C90.985 8.48701 91.0253 8.47001 91.0715 8.47495ZM88.6919 9.09699C88.6092 9.27921 88.5464 9.48141 88.5034 9.7036C88.4596 9.92021 88.437 10.1453 88.4354 10.3787C88.5653 10.6166 88.6859 10.7677 88.7973 10.8318C88.9079 10.8903 89.0007 10.8831 89.0759 10.81C89.151 10.7369 89.2013 10.6076 89.2266 10.422C89.2575 10.2356 89.2546 10.0113 89.218 9.749C89.2025 9.63739 89.1762 9.51019 89.1392 9.36743C89.1015 9.21908 89.0588 9.09702 89.0113 9.00123C88.9631 8.89987 88.9103 8.8475 88.8529 8.84412C88.8011 8.83996 88.7474 8.92425 88.6919 9.09699ZM86.5935 14.3053C86.515 14.4357 86.4568 14.569 86.4189 14.7051C86.3817 14.8469 86.3626 14.9747 86.3614 15.0886C86.3602 15.2026 86.3759 15.2943 86.4083 15.3637C86.4408 15.4332 86.4877 15.4636 86.5491 15.455C86.6056 15.4528 86.6783 15.4029 86.7671 15.3051C86.8559 15.2074 86.9532 15.0488 87.0592 14.8292C87.2092 14.5181 87.3002 14.11 87.3322 13.6049C87.1797 13.6944 87.0427 13.7932 86.9212 13.9011C86.7949 14.0155 86.6857 14.1502 86.5935 14.3053Z" fill="#D9D9D9"/>
</g>
<defs>
<clipPath id="clip0_9_54">
<rect width="133" height="26.6" fill="white"/>
</clipPath>
</defs>
</svg>
