<svg width="1100" height="1100" viewBox="0 0 1100 1100" fill="none" xmlns="http://www.w3.org/2000/svg">
<circle cx="550" cy="550" r="550" fill="#DC143C"/>
<path d="M281.772 354V745.245H173V354H281.772Z" fill="#191919"/>
<path d="M452.486 662.001H574.021V745.245H343.714V354H452.486V662.001Z" fill="#191919"/>
<path d="M925.426 484.415C925.426 508.093 919.876 529.736 908.777 549.345C898.048 568.583 881.584 584.122 859.386 595.961C837.558 607.43 810.735 613.165 778.917 613.165H725.087V745.245H616.315V354H778.917C810.365 354 837.003 359.55 858.831 370.649C881.029 381.748 897.678 397.102 908.777 416.71C919.876 436.319 925.426 458.887 925.426 484.415ZM768.373 526.592C799.081 526.592 814.435 512.533 814.435 484.415C814.435 455.927 799.081 441.683 768.373 441.683H725.087V526.592H768.373Z" fill="#191919"/>
<path d="M172.825 557.902C173.637 557.989 174.336 558.341 174.922 558.959C175.508 559.578 175.758 560.293 175.671 561.105C175.685 561.203 175.54 562.673 175.236 565.515C174.919 568.259 174.48 571.919 173.918 576.497C173.343 580.977 172.563 586.135 171.577 591.972C170.676 597.697 169.599 603.596 168.346 609.67C165.246 624.001 161.65 635.501 157.56 644.171C156.714 645.989 155.685 647.932 154.474 650.001C153.361 652.056 152.031 653.991 150.484 655.806C149.036 657.608 147.35 659.143 145.427 660.411C143.504 661.679 141.366 662.477 139.012 662.806C133.421 663.585 128.092 661.579 123.024 656.787C118.739 652.585 114.733 646.444 111.006 638.365C107.809 631.212 104.924 622.716 102.352 612.876C99.8774 603.022 97.84 592.357 96.2395 580.882C94.5706 568.916 93.5312 557.163 93.1214 545.621C92.7959 533.968 93.125 523.424 94.1086 513.988C95.122 504.047 96.913 496.099 99.4816 490.141C102.39 483.036 106.395 479.128 111.495 478.417C114.143 478.047 116.572 478.259 118.782 479.05C121.077 479.73 123.083 480.85 124.8 482.41C126.616 483.957 128.178 485.839 129.487 488.056C130.783 490.175 131.846 492.426 132.679 494.81C134.606 500.74 135.431 507.374 135.155 514.712C134.865 521.952 133.475 529.194 130.986 536.441C129.642 540.428 128.012 544.155 126.096 547.621C124.18 551.088 121.991 554.393 119.53 557.536C118.855 558.43 118.131 559.331 117.357 560.239C116.57 561.049 115.79 561.907 115.017 562.815C116.248 575.942 118.153 588.524 120.732 600.563C121.794 605.314 123.025 610.192 124.423 615.197C125.834 620.299 127.352 625.087 128.976 629.56C130.697 634.019 132.498 637.967 134.377 641.405C136.256 644.842 138.146 647.278 140.046 648.713C142.058 650.232 144.094 650.498 146.156 649.511C148.232 648.621 150.265 645.988 152.254 641.611C156.02 633.487 159.425 622.413 162.469 608.39C163.735 602.415 164.825 596.613 165.74 590.986C166.642 585.261 167.38 580.159 167.955 575.679C168.53 571.2 168.927 567.595 169.146 564.864C169.463 562.12 169.622 560.748 169.622 560.748C169.709 559.936 170.061 559.237 170.679 558.651C171.298 558.065 172.013 557.815 172.825 557.902ZM126.938 496.66C125.775 492.623 124.648 490.281 123.558 489.633C122.454 488.887 121.409 489.282 120.424 490.82C119.425 492.259 118.5 494.588 117.649 497.806C116.896 501.011 116.24 504.552 115.681 508.429C115.122 512.307 114.674 516.269 114.339 520.315C113.99 524.263 113.782 527.792 113.715 530.901C113.647 534.71 113.641 538.61 113.698 542.602C113.839 546.481 114.043 550.452 114.309 554.515C119.006 548.76 122.676 542.099 125.32 534.531C127.611 528.013 128.886 521.386 129.147 514.65C129.407 507.915 128.671 501.918 126.938 496.66Z" fill="#D9D9D9"/>
<path d="M214.253 553.024C215.092 553.307 215.665 553.827 215.97 554.584C216.262 555.243 216.267 555.993 215.984 556.832C213.919 562.819 211.694 568.729 209.308 574.561C207.019 580.379 204.6 585.616 202.05 590.271C200.909 592.13 199.72 593.996 198.481 595.869C197.242 597.741 195.836 599.487 194.262 601.106C192.675 602.628 190.913 603.973 188.976 605.143C187.138 606.3 185.041 607.042 182.687 607.37C179.255 607.849 175.974 606.907 172.844 604.544C169.701 602.082 166.829 598.333 164.227 593.297C161.054 587.04 158.85 580.199 157.614 572.772C156.379 565.345 156.606 558.014 158.297 550.779C158.963 548.387 159.768 546.275 160.712 544.443C161.643 542.514 162.811 540.851 164.216 539.455C166.83 536.691 169.862 534.768 173.311 533.687C176.773 532.704 179.868 532.673 182.596 533.592C184.694 534.299 186.406 535.46 187.731 537.075C189.141 538.578 190.003 540.458 190.318 542.714C191.111 548.402 186.491 554.346 176.457 560.545C176.883 562.885 177.427 565.709 178.088 569.017C178.736 572.226 179.432 575.428 180.178 578.624C181.022 581.806 181.978 584.722 183.048 587.372C184.117 590.023 185.336 591.953 186.705 593.162C188.06 594.272 189.543 594.515 191.156 593.891C192.853 593.154 194.751 590.99 196.85 587.397C199.316 582.854 201.657 577.778 203.875 572.169C206.176 566.449 208.373 560.693 210.465 554.902C210.748 554.063 211.219 553.497 211.878 553.205C212.622 552.801 213.413 552.741 214.253 553.024ZM176.796 553.299C178.62 552.044 180.06 550.894 181.114 549.847C182.154 548.702 182.92 547.745 183.413 546.976C183.892 546.11 184.195 545.417 184.323 544.9C184.437 544.284 184.474 543.829 184.433 543.535C184.269 542.358 184.082 541.734 183.872 541.663C183.746 541.481 183.312 541.591 182.568 541.995C179.523 543.819 177.599 547.587 176.796 553.299Z" fill="#D9D9D9"/>
<path d="M287.369 542.076C288.181 542.163 288.831 542.522 289.319 543.154C289.905 543.772 290.155 544.487 290.068 545.299C290.095 545.495 289.994 546.56 289.763 548.491C289.519 550.325 289.161 552.775 288.688 555.84C288.301 558.794 287.729 562.224 286.974 566.128C286.317 570.02 285.47 573.987 284.434 578.031C283.866 580.41 283.044 583.474 281.967 587.224C280.975 590.862 279.625 594.45 277.919 597.988C276.226 601.623 274.22 604.803 271.9 607.526C269.58 610.249 266.802 611.837 263.565 612.288C259.838 612.808 256.621 611.607 253.914 608.685C250.844 605.313 248.601 599.627 247.185 591.625C246.264 586.454 245.724 580.431 245.565 573.554C244.689 575.876 243.595 578.428 242.283 581.21C241.056 583.881 239.563 586.439 237.804 588.884C236.032 591.231 233.966 593.269 231.608 594.998C229.249 596.727 226.5 597.81 223.362 598.248C222.171 598.314 220.792 598.106 219.225 597.625C217.659 597.143 216.108 596.06 214.573 594.374C213.136 592.675 211.75 590.268 210.416 587.155C209.082 584.041 208.052 579.885 207.327 574.687C206.192 566.547 206.691 559.728 208.824 554.231C211.068 548.819 214.463 545.196 219.006 543.362C223.158 541.583 227.619 541.311 232.391 542.545C237.162 543.779 241.523 546.371 245.474 550.319L246.75 539.042C246.853 537.628 247.998 536.519 250.186 535.714C252.359 534.811 254.713 534.482 257.247 534.729C259.768 534.877 262.027 535.662 264.025 537.083C266.009 538.406 266.912 540.58 266.734 543.604C266.49 545.438 266.336 547.559 266.272 549.968C266.153 551.984 266.096 554.442 266.101 557.341C266.091 560.142 266.088 563.342 266.09 566.941C266.192 574.126 266.494 580.233 266.995 585.263C267.581 590.181 268.376 593.369 269.379 594.829C270.495 596.373 271.813 595.79 273.335 593.078C274.856 590.366 276.639 584.868 278.683 576.584C279.635 572.651 280.446 568.789 281.116 564.996C281.872 561.091 282.443 557.661 282.831 554.708C283.317 551.74 283.633 549.346 283.779 547.526C284.01 545.594 284.125 544.628 284.125 544.628C284.212 543.816 284.571 543.166 285.203 542.678C285.835 542.19 286.557 541.99 287.369 542.076ZM236.83 578.671C238.408 575.652 239.798 572.358 241.001 568.791C242.203 565.224 243.231 561.481 244.084 557.562C243.861 557.393 243.742 557.26 243.728 557.162C240.59 553.3 237.887 551.127 235.62 550.644C233.339 550.062 231.524 550.665 230.173 552.453C228.907 554.13 228.072 556.746 227.668 560.302C227.251 563.759 227.343 567.646 227.945 571.962C228.341 574.806 228.795 577.342 229.306 579.571C229.803 581.701 230.414 583.216 231.139 584.115C231.865 585.013 232.677 585.1 233.575 584.375C234.474 583.649 235.559 581.748 236.83 578.671Z" fill="#D9D9D9"/>
<path d="M353.986 532.785C354.812 532.97 355.427 533.434 355.83 534.177C356.22 534.823 356.323 535.559 356.138 536.384C356.138 536.384 355.889 537.469 355.392 539.638C354.881 541.709 354.165 544.459 353.243 547.887C352.419 551.301 351.363 555.198 350.074 559.577C348.869 563.845 347.476 568.189 345.892 572.609C345.044 575.127 343.856 578.442 342.33 582.555C340.79 586.569 338.949 590.575 336.807 594.574C334.665 598.572 332.154 602.072 329.273 605.073C326.504 608.159 323.452 609.935 320.117 610.4C318.548 610.619 316.98 610.487 315.413 610.006C313.944 609.511 312.603 608.498 311.389 606.968C306.536 600.845 305.675 586.067 308.805 562.634C309.508 557.636 310.245 552.884 311.016 548.377C311.886 543.856 312.655 540.049 313.323 536.956C310.629 538.432 307.249 540.003 303.182 541.67C299.199 543.226 294.952 544.318 290.441 544.947C283.575 545.905 277.825 544.107 273.19 539.554C269.352 535.69 267.002 530.669 266.14 524.49C265.784 521.94 265.743 519.496 266.017 517.158C266.277 514.722 266.824 512.546 267.656 510.63C269.773 505.735 273.039 502.98 277.452 502.364C280.297 501.968 282.585 502.248 284.319 503.206C286.137 504.053 287.513 504.961 288.448 505.93C292.257 510.298 293.556 517.816 292.344 528.484C292.127 530.514 291.897 532.446 291.652 534.28C291.395 536.015 291.109 537.555 290.797 538.898C294.118 538.335 297.3 537.492 300.343 536.367C303.385 535.243 306.029 534.124 308.273 533.011C310.602 531.787 312.455 530.728 313.83 529.837C315.303 528.931 316.04 528.479 316.04 528.479C316.307 528.241 316.959 527.9 317.997 527.456C319.12 526.899 320.452 526.413 321.994 525.998C323.522 525.485 325.12 525.112 326.787 524.88C328.441 524.549 329.932 524.491 331.262 524.706C332.676 524.808 333.739 525.26 334.451 526.061C335.247 526.75 335.509 527.913 335.237 529.551C335.237 529.551 335.059 530.425 334.704 532.175C334.334 533.826 333.85 536.093 333.252 538.976C332.753 541.846 332.161 545.128 331.476 548.823C330.792 552.518 330.184 556.402 329.652 560.476C328.347 569.757 327.58 577.163 327.351 582.694C327.123 588.225 327.441 591.58 328.305 592.76C329.17 593.939 330.553 592.746 332.456 589.181C334.47 585.701 337.06 579.54 340.227 570.7C341.81 566.279 343.211 561.984 344.429 557.815C345.633 553.547 346.654 549.756 347.492 546.439C348.413 543.011 349.13 540.261 349.641 538.19C350.152 536.119 350.407 535.084 350.407 535.084C350.592 534.258 351.007 533.65 351.653 533.26C352.383 532.759 353.161 532.6 353.986 532.785ZM286.569 527.94C286.712 526.82 286.754 524.964 286.692 522.373C286.729 519.768 286.478 517.254 285.94 514.829C285.5 512.391 284.68 510.455 283.48 509.023C282.267 507.492 280.531 507.234 278.273 508.249C276.857 508.847 275.921 510.027 275.467 511.79C274.915 513.567 274.698 515.597 274.817 517.88C274.935 520.163 275.369 522.553 276.117 525.048C276.766 527.557 277.585 529.842 278.573 531.904C279.462 533.98 280.451 535.692 281.539 537.04C282.627 538.388 283.668 539.043 284.662 539.004C284.989 537.759 285.316 536.163 285.645 534.218C285.973 532.272 286.281 530.179 286.569 527.94Z" fill="#D9D9D9"/>
<path d="M443.327 520.324C444.139 520.411 444.747 520.826 445.151 521.57C445.639 522.202 445.839 522.924 445.753 523.735C445.78 523.932 445.616 524.904 445.26 526.654C445.002 528.39 444.574 530.699 443.976 533.582C443.379 536.465 442.632 539.719 441.738 543.343C440.844 546.967 439.816 550.71 438.655 554.572C435.655 563.889 432.486 571.28 429.149 576.745C424.489 584.194 419.314 588.315 413.625 589.109C409.997 589.615 406.974 588.737 404.559 586.474C402.842 584.914 401.539 582.746 400.652 579.97C399.863 577.18 399.327 574.055 399.045 570.595C398.847 567.023 398.81 563.179 398.936 559.062C399.16 554.931 399.419 550.695 399.713 546.355C399.992 542.616 400.2 539.088 400.337 535.769C400.558 532.339 400.618 529.181 400.515 526.295C400.331 522.822 399.982 520.32 399.469 518.792C399.054 517.25 398.567 516.268 398.008 515.846C397.784 515.678 397.519 515.565 397.211 515.508C396.889 515.352 396.434 515.316 395.846 515.398C394.276 515.617 392.627 516.697 390.898 518.638C389.254 520.467 387.591 523.599 385.909 528.033C384.228 532.466 382.507 538.406 380.745 545.851C379.068 553.184 377.406 562.414 375.759 573.543C375.779 575.84 374.694 577.741 372.505 579.246C370.413 580.738 368.057 581.766 365.436 582.332C362.829 582.995 360.343 583.092 357.977 582.622C355.724 582.236 354.488 581.259 354.269 579.69C353.279 574.028 352.471 568.592 351.844 563.38C351.204 558.07 350.708 553.44 350.357 549.489C349.992 545.44 349.744 542.226 349.611 539.844C349.367 537.379 349.246 536.146 349.246 536.146C349.043 533.974 349.959 532.297 351.993 531.113C354.028 529.929 356.348 529.356 358.952 529.393C361.543 529.331 363.971 529.892 366.236 531.076C368.599 532.247 369.903 534.065 370.147 536.53C370.16 536.628 370.357 538.401 370.738 541.847C371.119 545.294 371.69 550.463 372.451 557.356C373.136 553.661 373.863 549.91 374.631 546.103C375.498 542.283 376.442 538.652 377.462 535.21C378.552 531.558 379.655 528.355 380.771 525.6C381.872 522.746 383.078 520.278 384.387 518.196C385.599 516.127 387.236 514.249 389.301 512.561C391.463 510.86 393.778 509.537 396.246 508.593C398.701 507.551 401.279 507.041 403.982 507.064C406.671 506.989 409.247 507.53 411.708 508.686C414.294 510.025 416.423 512.028 418.095 514.695C419.767 517.361 420.849 520.46 421.341 523.991C421.834 527.521 421.982 531.45 421.785 535.777C421.589 540.104 421.252 544.501 420.775 548.967C420.191 556.247 420.046 562.017 420.34 566.275C420.634 570.534 421.27 572.945 422.248 573.508C423.338 574.156 424.75 572.809 426.484 569.468C428.316 566.113 430.484 560.511 432.989 552.662C434.164 548.899 435.156 545.261 435.966 541.748C436.861 538.124 437.614 534.919 438.225 532.134C438.837 529.35 439.271 527.089 439.529 525.353C439.787 523.618 439.916 522.75 439.916 522.75C440.003 521.938 440.369 521.337 441.014 520.947C441.744 520.445 442.515 520.238 443.327 520.324Z" fill="#D9D9D9"/>
<path d="M482.762 515.574C483.574 515.661 484.273 516.013 484.859 516.631C485.432 517.151 485.675 517.817 485.588 518.629C485.588 518.629 485.536 519.687 485.431 521.801C485.41 523.804 485.275 526.422 485.026 529.656C484.876 532.877 484.59 536.566 484.17 540.725C483.848 544.869 483.337 549.09 482.637 553.387C481.765 558.608 480.812 563.24 479.776 567.284C478.74 571.328 477.58 574.84 476.296 577.818C474.826 581.623 472.891 584.592 470.489 586.727C468.087 588.862 465.548 590.016 462.873 590.189C460.295 590.349 457.728 589.507 455.171 587.664C452.615 585.821 450.454 582.872 448.689 578.819C446.13 573.377 444.033 565.87 442.398 556.299C441.753 552.39 441.206 548.467 440.757 544.53C440.307 540.593 439.962 537.042 439.72 533.876C439.479 530.71 439.319 528.132 439.242 526.143C439.151 524.056 439.092 522.915 439.064 522.719C439.083 521.416 440.136 520.369 442.226 519.578C444.301 518.689 446.593 518.269 449.099 518.319C451.704 518.356 454.132 518.917 456.383 520.003C458.635 521.089 459.896 522.963 460.167 525.625C460.181 525.723 460.258 527.712 460.399 531.591C460.639 535.458 461.167 540.683 461.986 547.268C464.352 564.236 466.816 572.941 469.378 573.384C471.953 573.925 474.385 566.986 476.673 552.569C477.29 548.383 477.814 544.261 478.248 540.201C478.682 536.141 478.981 532.549 479.145 529.427C479.394 526.193 479.529 523.574 479.549 521.571C479.668 519.555 479.727 518.547 479.727 518.547C479.814 517.735 480.117 517.043 480.638 516.47C481.242 515.786 481.95 515.487 482.762 515.574ZM454.117 494.072C453.829 492.013 452.854 490.399 451.192 489.231C449.627 488.049 447.766 487.609 445.608 487.91C443.646 488.184 442.026 489.11 440.746 490.688C439.564 492.253 439.117 494.065 439.405 496.124C439.678 498.086 440.597 499.658 442.162 500.839C443.825 502.007 445.637 502.454 447.598 502.181C449.756 501.88 451.426 500.947 452.607 499.382C453.887 497.804 454.39 496.034 454.117 494.072Z" fill="#D9D9D9"/>
<path d="M573.494 502.17C574.306 502.256 574.913 502.671 575.317 503.415C575.805 504.047 576.006 504.769 575.919 505.581C575.946 505.777 575.782 506.75 575.426 508.499C575.168 510.235 574.741 512.544 574.143 515.427C573.545 518.31 572.799 521.564 571.905 525.188C571.01 528.813 569.983 532.556 568.821 536.417C565.821 545.734 562.653 553.125 559.315 558.59C554.655 566.039 549.481 570.161 543.792 570.954C540.163 571.46 537.141 570.582 534.726 568.319C533.008 566.759 531.706 564.591 530.819 561.815C530.03 559.025 529.494 555.9 529.211 552.44C529.013 548.868 528.977 545.024 529.102 540.907C529.326 536.776 529.585 532.541 529.88 528.2C530.158 524.462 530.366 520.933 530.503 517.614C530.725 514.184 530.784 511.026 530.682 508.141C530.497 504.667 530.148 502.166 529.635 500.638C529.22 499.096 528.733 498.114 528.174 497.692C527.951 497.523 527.685 497.41 527.377 497.353C527.056 497.198 526.601 497.161 526.012 497.243C524.443 497.462 522.794 498.542 521.065 500.483C519.42 502.312 517.757 505.444 516.076 509.878C514.395 514.312 512.673 520.251 510.912 527.696C509.235 535.029 507.573 544.26 505.925 555.388C505.946 557.685 504.861 559.586 502.671 561.091C500.58 562.583 498.223 563.611 495.603 564.177C492.995 564.841 490.509 564.937 488.144 564.467C485.89 564.082 484.654 563.104 484.435 561.535C483.446 555.874 482.638 550.437 482.011 545.225C481.37 539.915 480.874 535.285 480.523 531.334C480.158 527.286 479.91 524.071 479.778 521.69C479.534 519.224 479.412 517.991 479.412 517.991C479.209 515.82 480.125 514.142 482.16 512.958C484.194 511.775 486.514 511.201 489.119 511.238C491.71 511.176 494.138 511.738 496.403 512.922C498.766 514.092 500.069 515.91 500.313 518.375C500.327 518.474 500.524 520.246 500.905 523.692C501.285 527.139 501.856 532.309 502.618 539.201C503.302 535.506 504.029 531.756 504.798 527.949C505.665 524.128 506.608 520.497 507.628 517.055C508.719 513.404 509.822 510.2 510.937 507.445C512.039 504.592 513.245 502.124 514.554 500.041C515.765 497.973 517.403 496.094 519.467 494.407C521.63 492.705 523.945 491.382 526.413 490.438C528.867 489.396 531.446 488.886 534.149 488.909C536.838 488.834 539.413 489.375 541.874 490.532C544.461 491.871 546.59 493.873 548.261 496.54C549.933 499.206 551.015 502.305 551.508 505.836C552 509.367 552.148 513.296 551.952 517.623C551.755 521.949 551.419 526.346 550.942 530.812C550.357 538.092 550.212 543.862 550.506 548.12C550.8 552.379 551.436 554.79 552.415 555.353C553.505 556.001 554.917 554.654 556.651 551.313C558.482 547.958 560.651 542.356 563.156 534.508C564.331 530.744 565.323 527.106 566.133 523.594C567.027 519.969 567.78 516.765 568.392 513.98C569.003 511.195 569.438 508.934 569.696 507.199C569.953 505.463 570.082 504.595 570.082 504.595C570.169 503.783 570.535 503.182 571.181 502.792C571.911 502.29 572.682 502.083 573.494 502.17Z" fill="#D9D9D9"/>
<path d="M652.398 492.214C653.139 492.511 653.663 493.038 653.968 493.795C654.358 494.441 654.412 495.183 654.129 496.022C652.461 500.555 649.82 505.272 646.204 510.176C642.687 515.066 638.615 520.284 633.989 525.828C634.68 528.631 635.348 531.988 635.993 535.897C636.625 539.709 637.137 543.737 637.529 547.982C638.033 552.311 638.347 556.716 638.472 561.198C638.709 565.765 638.729 570.211 638.533 574.538C638.35 578.963 637.923 583.072 637.253 586.865C636.595 590.757 635.625 594.192 634.34 597.17C632.125 602.079 629.52 606.342 626.525 609.959C623.53 613.576 620.174 616.394 616.456 618.412C613.593 620.112 610.298 621.221 606.571 621.741C602.956 622.345 599.505 621.976 596.218 620.635C593.588 619.702 591.289 618.273 589.321 616.348C587.366 614.521 585.812 612.338 584.658 609.799C582.366 604.119 582.226 597.74 584.238 590.66C585.669 585.861 587.47 581.21 589.642 576.708C591.813 572.206 594.244 567.767 596.933 563.392C599.636 559.116 602.5 554.917 605.525 550.795C608.662 546.758 611.861 542.813 615.123 538.958C614.425 533.956 613.587 529.024 612.609 524.161C611.617 519.2 610.513 514.154 609.298 509.024C608.315 514.161 607.109 518.778 605.681 522.877C604.253 526.976 602.707 530.591 601.044 533.723C600.326 535.023 599.376 536.455 598.194 538.02C597.11 539.571 595.859 540.995 594.44 542.293C593.12 543.577 591.618 544.636 589.934 545.471C588.349 546.292 586.639 546.58 584.806 546.336C580.506 546.336 576.767 544.258 573.587 540.102C570.31 535.959 568.192 530.455 567.235 523.59C566.223 516.332 567.099 509.711 569.864 503.726C571.274 500.929 572.997 498.589 575.034 496.705C577.155 494.71 579.457 493.289 581.938 492.443C586.537 491.001 591.177 491.654 595.86 494.401C599.144 496.442 602.034 499.239 604.529 502.79C604.842 501.447 605.056 500.117 605.172 498.801C605.373 497.373 605.574 495.945 605.775 494.518C605.693 493.929 606.032 493.132 606.791 492.126C607.649 491.107 608.716 490.158 609.994 489.28C611.356 488.29 612.829 487.384 614.414 486.563C616 485.742 617.528 485.229 618.999 485.024C620.457 484.721 621.773 484.837 622.947 485.373C624.108 485.811 624.938 486.745 625.438 488.176C625.438 488.176 625.659 489.045 626.101 490.783C626.544 492.521 627.111 494.791 627.801 497.595C628.479 500.3 629.224 503.495 630.038 507.181C630.937 510.756 631.751 514.442 632.481 518.239C636.249 513.714 639.505 509.461 642.249 505.478C645.092 501.482 647.205 497.638 648.59 493.945C648.886 493.204 649.364 492.687 650.023 492.396C650.767 491.992 651.559 491.931 652.398 492.214ZM595.844 530.848C598.634 525.76 600.966 519.185 602.842 511.125C600.744 506.118 598.674 503.107 596.633 502.092C594.689 501.063 592.98 501.351 591.504 502.957C590.014 504.465 588.907 506.919 588.181 510.32C587.442 513.622 587.326 517.088 587.832 520.717C588.037 522.188 588.395 524.038 588.906 526.267C589.403 528.397 590.006 530.213 590.715 531.714C591.425 533.215 592.192 534.057 593.018 534.242C593.941 534.413 594.883 533.282 595.844 530.848ZM589.863 592.275C588.262 597.998 588.106 602.619 589.397 606.138C590.688 609.658 592.677 611.73 595.363 612.355C598.162 613.065 601.288 612.179 604.742 609.698C608.307 607.301 611.458 603.011 614.195 596.83C616.312 591.936 617.532 585.266 617.854 576.822C618.19 568.477 617.649 558.503 616.231 546.903C610.704 553.873 605.519 561.145 600.676 568.72C595.833 576.294 592.229 584.146 589.863 592.275Z" fill="#D9D9D9"/>
<path d="M752.675 477.179C753.501 477.363 754.115 477.828 754.519 478.571C754.909 479.217 755.012 479.952 754.827 480.778C754.827 480.778 754.578 481.862 754.081 484.032C753.57 486.103 752.853 488.852 751.932 492.28C751.108 495.695 750.052 499.592 748.763 503.971C747.558 508.238 746.164 512.582 744.581 517.003C743.732 519.521 742.545 522.836 741.019 526.948C739.479 530.963 737.638 534.969 735.496 538.967C733.354 542.966 730.843 546.465 727.962 549.467C725.192 552.553 722.14 554.328 718.806 554.793C717.236 555.012 715.668 554.881 714.101 554.4C712.632 553.905 711.291 552.892 710.078 551.361C705.225 545.239 704.363 530.461 707.494 507.027C708.197 502.03 708.934 497.278 709.705 492.77C710.574 488.25 711.343 484.443 712.012 481.35C709.318 482.826 705.938 484.397 701.871 486.064C697.888 487.619 693.641 488.712 689.129 489.341C682.264 490.299 676.514 488.501 671.879 483.948C668.041 480.084 665.69 475.062 664.829 468.883C664.473 466.333 664.432 463.889 664.706 461.551C664.966 459.115 665.513 456.939 666.345 455.023C668.462 450.129 671.727 447.374 676.141 446.758C678.985 446.361 681.274 446.642 683.008 447.6C684.825 448.446 686.202 449.354 687.137 450.324C690.946 454.692 692.244 462.21 691.033 472.878C690.816 474.908 690.585 476.839 690.341 478.673C690.083 480.409 689.798 481.949 689.486 483.292C692.807 482.729 695.989 481.885 699.031 480.761C702.074 479.637 704.718 478.518 706.962 477.405C709.291 476.18 711.143 475.122 712.519 474.23C713.992 473.325 714.729 472.872 714.729 472.872C714.996 472.635 715.648 472.294 716.686 471.849C717.808 471.293 719.14 470.807 720.682 470.392C722.21 469.879 723.808 469.506 725.476 469.274C727.129 468.943 728.621 468.885 729.951 469.099C731.365 469.202 732.428 469.654 733.139 470.454C733.935 471.143 734.198 472.307 733.926 473.944C733.926 473.944 733.748 474.819 733.392 476.568C733.023 478.22 732.539 480.487 731.941 483.37C731.441 486.239 730.849 489.521 730.165 493.217C729.48 496.912 728.872 500.796 728.341 504.87C727.035 514.15 726.269 521.557 726.04 527.088C725.812 532.619 726.13 535.974 726.994 537.153C727.858 538.333 729.242 537.14 731.144 533.575C733.159 530.094 735.749 523.934 738.915 515.093C740.499 510.673 741.899 506.378 743.118 502.209C744.322 497.941 745.343 494.149 746.18 490.833C747.102 487.405 747.818 484.655 748.33 482.584C748.841 480.513 749.096 479.477 749.096 479.477C749.281 478.652 749.696 478.044 750.342 477.654C751.072 477.152 751.849 476.994 752.675 477.179ZM685.257 472.333C685.401 471.213 685.442 469.358 685.381 466.767C685.418 464.162 685.167 461.647 684.629 459.223C684.189 456.784 683.369 454.849 682.169 453.416C680.956 451.886 679.22 451.628 676.962 452.643C675.545 453.24 674.61 454.421 674.156 456.184C673.604 457.961 673.387 459.991 673.506 462.274C673.624 464.557 674.057 466.946 674.805 469.442C675.455 471.951 676.274 474.236 677.261 476.298C678.151 478.374 679.14 480.086 680.227 481.434C681.315 482.782 682.357 483.437 683.351 483.398C683.677 482.152 684.005 480.557 684.333 478.611C684.662 476.666 684.97 474.573 685.257 472.333Z" fill="#D9D9D9"/>
<path d="M804.456 470.706C805.295 470.989 805.867 471.509 806.173 472.267C806.465 472.926 806.47 473.675 806.187 474.515C804.122 480.502 801.897 486.411 799.51 492.244C797.222 498.062 794.803 503.299 792.253 507.954C791.112 509.813 789.923 511.679 788.684 513.551C787.445 515.424 786.039 517.17 784.465 518.789C782.878 520.31 781.115 521.656 779.179 522.826C777.34 523.982 775.244 524.725 772.89 525.053C769.458 525.532 766.177 524.589 763.047 522.226C759.904 519.765 757.032 516.016 754.43 510.98C751.257 504.723 749.053 497.881 747.817 490.455C746.581 483.028 746.809 475.697 748.499 468.462C749.166 466.069 749.971 463.957 750.915 462.126C751.846 460.196 753.014 458.534 754.419 457.138C757.033 454.373 760.065 452.451 763.513 451.37C766.976 450.387 770.071 450.355 772.799 451.275C774.897 451.982 776.609 453.143 777.934 454.758C779.344 456.261 780.206 458.141 780.52 460.396C781.314 466.085 776.694 472.029 766.659 478.228C767.086 480.568 767.63 483.392 768.291 486.699C768.938 489.908 769.635 493.111 770.381 496.306C771.225 499.488 772.181 502.405 773.251 505.055C774.32 507.705 775.539 509.635 776.908 510.844C778.263 511.955 779.746 512.198 781.359 511.573C783.056 510.837 784.954 508.672 787.053 505.08C789.518 500.536 791.86 495.46 794.078 489.852C796.379 484.131 798.576 478.376 800.668 472.585C800.951 471.745 801.422 471.18 802.081 470.888C802.825 470.484 803.616 470.424 804.456 470.706ZM766.999 470.981C768.823 469.727 770.263 468.576 771.317 467.529C772.357 466.384 773.123 465.428 773.616 464.659C774.095 463.792 774.398 463.1 774.526 462.582C774.64 461.966 774.677 461.511 774.636 461.217C774.472 460.04 774.284 459.416 774.075 459.346C773.949 459.163 773.515 459.274 772.771 459.677C769.726 461.502 767.802 465.27 766.999 470.981Z" fill="#D9D9D9"/>
<path d="M859.431 463.039C860.271 463.322 860.843 463.842 861.149 464.599C861.441 465.258 861.445 466.008 861.162 466.847L858.192 475.66C856.269 481.228 854.283 486.704 852.234 492.089C850.186 497.474 847.873 502.396 845.295 506.855C839.421 517.073 832.414 522.75 824.273 523.886C818.781 524.652 813.829 522.843 809.418 518.458C807.477 516.729 805.776 514.567 804.314 511.971C802.754 509.389 801.405 506.528 800.267 503.387C798.921 499.475 798.017 495.502 797.554 491.467C796.98 487.347 796.93 483.405 797.404 479.639C797.754 475.691 798.711 472.158 800.276 469.04C802.009 465.698 804.301 463.129 807.15 461.332C809.914 459.646 812.367 458.954 814.509 459.255C816.637 459.459 818.407 459.962 819.819 460.765C821.999 462.06 823.737 463.768 825.033 465.887C826.413 467.894 827.478 469.795 828.228 471.59C829.131 473.764 829.809 476.119 830.263 478.656C830.717 481.192 830.954 483.609 830.974 485.905C830.888 486.717 830.535 487.417 829.917 488.003C829.397 488.575 828.738 488.867 827.94 488.878C827.128 488.792 826.435 488.488 825.863 487.968C825.277 487.35 824.978 486.642 824.967 485.844C824.987 483.841 824.771 481.571 824.317 479.035C823.849 476.4 823.219 474.389 822.425 473C821.716 471.499 820.947 471.006 820.119 471.521C819.291 472.037 818.556 474.289 817.912 478.278C817.337 482.758 817.573 487.675 818.619 493.028C819.529 497.401 820.714 501.235 822.174 504.531C823.633 507.827 825.257 510.15 827.045 511.5C828.931 512.837 830.955 513.005 833.115 512.004C835.359 510.891 837.728 508.161 840.221 503.813C842.546 499.69 844.648 495.047 846.528 489.885C848.506 484.71 850.498 479.283 852.506 473.604L855.644 464.917C855.927 464.078 856.398 463.512 857.057 463.22C857.8 462.816 858.592 462.756 859.431 463.039Z" fill="#D9D9D9"/>
<path d="M932.741 452.064C933.553 452.151 934.204 452.51 934.692 453.142C935.278 453.76 935.527 454.475 935.441 455.287C935.468 455.483 935.367 456.547 935.136 458.479C934.892 460.313 934.534 462.763 934.061 465.828C933.673 468.782 933.102 472.211 932.347 476.116C931.689 480.007 930.843 483.975 929.807 488.019C929.239 490.398 928.417 493.462 927.34 497.212C926.347 500.85 924.998 504.438 923.292 507.975C921.599 511.611 919.593 514.791 917.273 517.514C914.953 520.237 912.175 521.824 908.938 522.276C905.211 522.796 901.994 521.595 899.287 518.673C896.217 515.301 893.974 509.615 892.558 501.613C891.637 496.442 891.097 490.418 890.937 483.542C890.061 485.863 888.968 488.416 887.656 491.198C886.429 493.869 884.936 496.427 883.177 498.872C881.404 501.219 879.339 503.257 876.98 504.986C874.622 506.715 871.873 507.798 868.735 508.236C867.544 508.302 866.165 508.094 864.598 507.613C863.031 507.131 861.48 506.048 859.945 504.362C858.509 502.663 857.123 500.256 855.789 497.143C854.455 494.029 853.425 489.873 852.7 484.675C851.565 476.534 852.064 469.716 854.197 464.219C856.441 458.806 859.836 455.183 864.379 453.35C868.531 451.571 872.992 451.299 877.764 452.533C882.535 453.767 886.896 456.359 890.846 460.307L892.123 449.03C892.226 447.616 893.371 446.507 895.559 445.702C897.732 444.798 900.086 444.47 902.62 444.717C905.141 444.865 907.4 445.65 909.398 447.071C911.382 448.394 912.285 450.568 912.107 453.592C911.863 455.426 911.709 457.547 911.645 459.956C911.526 461.972 911.469 464.43 911.473 467.329C911.464 470.13 911.46 473.33 911.463 476.929C911.565 484.114 911.867 490.221 912.368 495.251C912.954 500.168 913.749 503.357 914.752 504.817C915.867 506.361 917.186 505.777 918.707 503.065C920.229 500.354 922.012 494.856 924.056 486.571C925.007 482.639 925.818 478.777 926.489 474.983C927.244 471.079 927.816 467.649 928.204 464.695C928.69 461.728 929.006 459.334 929.152 457.514C929.383 455.582 929.498 454.616 929.498 454.616C929.585 453.804 929.944 453.154 930.576 452.666C931.208 452.178 931.929 451.977 932.741 452.064ZM882.202 488.659C883.781 485.64 885.171 482.346 886.374 478.779C887.576 475.211 888.604 471.469 889.457 467.55C889.233 467.381 889.115 467.248 889.101 467.15C885.963 463.288 883.26 461.115 880.993 460.631C878.712 460.05 876.896 460.653 875.546 462.441C874.28 464.117 873.445 466.734 873.041 470.289C872.623 473.747 872.716 477.634 873.318 481.95C873.714 484.794 874.168 487.33 874.679 489.559C875.176 491.689 875.787 493.204 876.512 494.102C877.238 495.001 878.05 495.088 878.948 494.363C879.847 493.637 880.932 491.736 882.202 488.659Z" fill="#D9D9D9"/>
<path d="M1003.88 442.893C1004.69 442.979 1005.39 443.332 1005.97 443.95C1006.55 444.47 1006.79 445.136 1006.7 445.948C1006.39 458.79 1004.74 469.918 1001.76 479.334C998.87 488.735 994.537 496.739 988.76 503.344C984.359 508.357 979.57 512.375 974.392 515.396C969.313 518.405 964.227 521.014 959.136 523.224L959.085 526.08C958.735 538.628 956.882 548.285 953.527 555.052C950.495 561.274 947.082 566.2 943.289 569.828C939.398 573.471 935.392 575.579 931.273 576.154C930.979 576.195 930.727 576.18 930.517 576.109C930.222 576.15 929.928 576.191 929.634 576.232C927.057 576.392 924.678 575.824 922.497 574.528C920.33 573.33 918.537 571.581 917.116 569.279C915.04 565.869 914.227 561.833 914.677 557.171C915.17 552.103 916.923 547.109 919.936 542.189C922.218 538.471 924.931 535.343 928.076 532.805C931.222 530.266 934.661 528.037 938.392 526.117C938.463 521.607 938.297 516.831 937.894 511.788C937.588 506.731 937.032 501.31 936.225 495.523C935.486 490.227 934.691 485.238 933.838 480.558C932.985 475.877 932.165 471.792 931.379 468.302C930.676 464.701 930.083 461.884 929.6 459.851C929.103 457.721 928.854 456.656 928.854 456.656C928.649 455.185 929.432 453.626 931.202 451.979C933.07 450.319 935.203 449.121 937.6 448.387C940.081 447.541 942.463 447.409 944.744 447.99C947.011 448.474 948.497 450.167 949.201 453.068C949.215 453.166 949.547 454.47 950.197 456.979C950.833 459.39 951.536 462.641 952.307 466.733C952.722 463.976 953.256 461.351 953.909 458.861C954.646 456.258 955.55 453.782 956.622 451.433C957.441 449.419 958.344 447.643 959.329 446.106C960.413 444.555 961.517 443.151 962.641 441.895C965.255 439.13 967.935 437.557 970.682 437.174C976.665 436.339 981.517 438.512 985.239 443.692C988.544 448.031 990.764 454.27 991.899 462.411C992.515 466.824 992.641 470.956 992.278 474.806C991.915 478.657 991.05 482.127 989.681 485.218C988.383 488.098 986.709 490.432 984.658 492.217C982.607 494.003 980.356 495.067 977.904 495.409C975.354 495.765 972.932 495.603 970.637 494.923C968.441 494.229 966.406 493.263 964.534 492.025C962.661 490.786 960.971 489.422 959.463 487.932C957.942 486.345 956.637 484.877 955.55 483.529L956.822 492.65C957.437 497.064 957.921 501.246 958.272 505.196C958.636 509.245 958.876 513.111 958.989 516.795C964.263 514.46 969.321 511.654 974.164 508.379C979.118 505.189 983.481 500.981 987.251 495.755C991.12 490.516 994.251 483.93 996.644 475.997C999.122 467.953 1000.52 457.909 1000.84 445.866C1000.93 445.054 1001.23 444.362 1001.75 443.789C1002.36 443.105 1003.06 442.806 1003.88 442.893ZM962.055 453.825C960.602 457.027 959.498 460.581 958.743 464.486C957.974 468.292 957.576 472.248 957.548 476.351C959.831 480.532 961.951 483.186 963.908 484.313C965.851 485.342 967.483 485.214 968.804 483.93C970.125 482.646 971.007 480.373 971.452 477.111C971.995 473.836 971.946 469.893 971.303 465.284C971.029 463.322 970.567 461.087 969.917 458.578C969.254 455.971 968.505 453.825 967.67 452.142C966.822 450.36 965.893 449.44 964.885 449.381C963.975 449.308 963.032 450.789 962.055 453.825ZM925.178 545.358C923.798 547.65 922.775 549.992 922.108 552.385C921.456 554.876 921.119 557.122 921.099 559.125C921.078 561.128 921.353 562.739 921.923 563.959C922.493 565.18 923.318 565.715 924.397 565.564C925.391 565.526 926.668 564.647 928.229 562.93C929.789 561.213 931.5 558.424 933.361 554.565C935.998 549.098 937.598 541.926 938.159 533.048C935.479 534.622 933.071 536.358 930.936 538.255C928.717 540.265 926.797 542.632 925.178 545.358Z" fill="#D9D9D9"/>
</svg>
